<svg width="405" height="215" viewBox="0 0 405 215" fill="none" xmlns="http://www.w3.org/2000/svg">
<g filter="url(#filter0_b_205_3575)">
<rect width="405" height="214.525" rx="11.8942" fill="white" fill-opacity="0.04"/>
<rect x="0.382211" y="0.382211" width="404.236" height="213.761" rx="11.512" stroke="url(#paint0_linear_205_3575)" stroke-width="0.764422"/>
<rect x="0.382211" y="0.382211" width="404.236" height="213.761" rx="11.512" stroke="#1E1E1E" stroke-width="0.764422"/>
<rect x="0.382211" y="0.382211" width="404.236" height="213.761" rx="11.512" stroke="url(#paint1_linear_205_3575)" stroke-width="0.764422"/>
<rect x="0.382211" y="0.382211" width="404.236" height="213.761" rx="11.512" stroke="url(#paint2_linear_205_3575)" stroke-width="0.764422"/>
</g>
<path d="M146.754 31.4683V21.0575H143.7V17.8355H153.524V21.0575H150.47V31.4683H146.754ZM160.229 26.7937C160.229 26.0922 160.052 25.5396 159.698 25.1361C159.344 24.7326 158.866 24.5308 158.264 24.5308C157.656 24.5308 157.174 24.7326 156.821 25.1361C156.473 25.5396 156.299 26.0922 156.299 26.7937C156.299 27.4952 156.473 28.0477 156.821 28.4512C157.168 28.8485 157.649 29.0472 158.264 29.0472C158.872 29.0472 159.35 28.8485 159.698 28.4512C160.052 28.0477 160.229 27.4952 160.229 26.7937ZM163.525 26.7937C163.525 27.4703 163.392 28.1129 163.125 28.7212C162.864 29.3296 162.482 29.8759 161.979 30.3601C161.47 30.8444 160.899 31.2106 160.266 31.4589C159.639 31.7073 158.972 31.8314 158.264 31.8314C157.544 31.8314 156.867 31.7073 156.234 31.4589C155.607 31.2106 155.045 30.8444 154.549 30.3601C154.052 29.8883 153.673 29.3482 153.412 28.7399C153.152 28.1253 153.021 27.4765 153.021 26.7937C153.021 26.1046 153.149 25.4558 153.403 24.8475C153.664 24.2391 154.046 23.6928 154.549 23.2085C155.039 22.7305 155.598 22.3705 156.225 22.1284C156.858 21.8862 157.538 21.7652 158.264 21.7652C158.99 21.7652 159.667 21.8862 160.294 22.1284C160.921 22.3705 161.483 22.7305 161.979 23.2085C162.489 23.699 162.873 24.2484 163.134 24.8568C163.395 25.4651 163.525 26.1108 163.525 26.7937ZM165.946 31.4683V24.4098H164.54V22.0632H165.946V19.2603H169.215V22.0632H170.621V24.4098H169.215V31.4683H165.946ZM179.346 26.7564C179.346 26.0239 179.151 25.4434 178.76 25.0151C178.369 24.5867 177.835 24.3725 177.158 24.3725C176.481 24.3725 175.947 24.5867 175.556 25.0151C175.171 25.4372 174.979 26.0177 174.979 26.7564C174.979 27.4889 175.175 28.0663 175.566 28.4884C175.957 28.9106 176.488 29.1216 177.158 29.1216C177.835 29.1216 178.369 28.9106 178.76 28.4884C179.151 28.0663 179.346 27.4889 179.346 26.7564ZM182.261 22.0632V31.4683H179.216V29.9411C178.781 30.5929 178.291 31.071 177.745 31.3751C177.205 31.6793 176.568 31.8314 175.836 31.8314C174.582 31.8314 173.579 31.3751 172.828 30.4626C172.077 29.5438 171.701 28.3146 171.701 26.775C171.701 25.2417 172.092 24.0249 172.874 23.1247C173.663 22.2184 174.721 21.7652 176.05 21.7652C176.758 21.7652 177.366 21.9173 177.875 22.2215C178.39 22.5195 178.831 22.982 179.197 23.609V22.0632H182.261ZM184.859 31.4683V17.0347H188.183V31.4683H184.859ZM200.382 23.283H201.127C202.046 23.283 202.676 23.1837 203.017 22.9851C203.359 22.7802 203.529 22.4294 203.529 21.9328C203.529 21.4175 203.368 21.0575 203.045 20.8526C202.729 20.6415 202.108 20.536 201.183 20.536H200.382V23.283ZM196.937 31.4683V17.8355H200.671C202.21 17.8355 203.284 17.8852 203.893 17.9845C204.507 18.0839 205.035 18.2546 205.476 18.4967C205.979 18.7761 206.36 19.1516 206.621 19.6234C206.888 20.089 207.021 20.6291 207.021 21.2437C207.021 22.0197 206.823 22.6374 206.425 23.0968C206.034 23.55 205.407 23.8945 204.544 24.1304C205.513 24.2049 206.27 24.5464 206.817 25.1547C207.363 25.7569 207.636 26.564 207.636 27.5759C207.636 28.3022 207.481 28.9416 207.17 29.4941C206.866 30.0466 206.429 30.475 205.857 30.7792C205.392 31.0275 204.818 31.2044 204.135 31.31C203.452 31.4155 202.334 31.4683 200.782 31.4683H196.937ZM200.382 28.684H201.686C202.567 28.684 203.191 28.5753 203.557 28.3581C203.924 28.1346 204.107 27.7652 204.107 27.2499C204.107 26.6788 203.939 26.2815 203.604 26.058C203.269 25.8283 202.648 25.7135 201.742 25.7135H200.382V28.684ZM216.818 26.7564C216.818 26.0239 216.622 25.4434 216.231 25.0151C215.84 24.5867 215.306 24.3725 214.629 24.3725C213.953 24.3725 213.419 24.5867 213.028 25.0151C212.643 25.4372 212.45 26.0177 212.45 26.7564C212.45 27.4889 212.646 28.0663 213.037 28.4884C213.428 28.9106 213.959 29.1216 214.629 29.1216C215.306 29.1216 215.84 28.9106 216.231 28.4884C216.622 28.0663 216.818 27.4889 216.818 26.7564ZM219.732 22.0632V31.4683H216.687V29.9411C216.253 30.5929 215.762 31.071 215.216 31.3751C214.676 31.6793 214.04 31.8314 213.307 31.8314C212.053 31.8314 211.05 31.3751 210.299 30.4626C209.548 29.5438 209.173 28.3146 209.173 26.775C209.173 25.2417 209.564 24.0249 210.346 23.1247C211.134 22.2184 212.193 21.7652 213.521 21.7652C214.229 21.7652 214.837 21.9173 215.346 22.2215C215.862 22.5195 216.302 22.982 216.669 23.609V22.0632H219.732ZM222.33 31.4683V17.0347H225.655V31.4683H222.33ZM235.367 26.7564C235.367 26.0239 235.172 25.4434 234.78 25.0151C234.389 24.5867 233.855 24.3725 233.179 24.3725C232.502 24.3725 231.968 24.5867 231.577 25.0151C231.192 25.4372 231 26.0177 231 26.7564C231 27.4889 231.195 28.0663 231.586 28.4884C231.978 28.9106 232.508 29.1216 233.179 29.1216C233.855 29.1216 234.389 28.9106 234.78 28.4884C235.172 28.0663 235.367 27.4889 235.367 26.7564ZM238.282 22.0632V31.4683H235.237V29.9411C234.802 30.5929 234.312 31.071 233.765 31.3751C233.225 31.6793 232.589 31.8314 231.856 31.8314C230.602 31.8314 229.6 31.3751 228.849 30.4626C228.098 29.5438 227.722 28.3146 227.722 26.775C227.722 25.2417 228.113 24.0249 228.895 23.1247C229.684 22.2184 230.742 21.7652 232.071 21.7652C232.778 21.7652 233.387 21.9173 233.896 22.2215C234.411 22.5195 234.852 22.982 235.218 23.609V22.0632H238.282ZM240.787 31.4683V22.0632H243.822V23.9721C244.263 23.2085 244.772 22.6498 245.35 22.296C245.927 21.9421 246.619 21.7652 247.426 21.7652C248.034 21.7652 248.575 21.8645 249.046 22.0632C249.524 22.2556 249.912 22.535 250.21 22.9013C250.459 23.2179 250.636 23.6028 250.741 24.0559C250.847 24.5091 250.899 25.1858 250.899 26.0859V31.4683H247.575V26.4305C247.575 25.6793 247.451 25.133 247.203 24.7916C246.96 24.4501 246.569 24.2794 246.029 24.2794C245.34 24.2794 244.837 24.534 244.521 25.043C244.204 25.5521 244.046 26.3777 244.046 27.52V31.4683H240.787ZM259.997 25.1547C259.674 24.8692 259.364 24.6612 259.066 24.5308C258.768 24.4005 258.455 24.3353 258.126 24.3353C257.467 24.3353 256.943 24.5526 256.552 24.9871C256.167 25.4217 255.974 26.0114 255.974 26.7564C255.974 27.4765 256.176 28.0508 256.58 28.4791C256.983 28.9075 257.526 29.1216 258.209 29.1216C258.545 29.1216 258.858 29.0565 259.15 28.9261C259.448 28.7895 259.73 28.5816 259.997 28.3022V31.1796C259.6 31.4031 259.203 31.5676 258.805 31.6731C258.408 31.7787 257.998 31.8314 257.576 31.8314C256.13 31.8314 254.956 31.3689 254.056 30.4439C253.162 29.5127 252.715 28.2898 252.715 26.775C252.715 25.3037 253.172 24.1025 254.084 23.1713C255.003 22.2339 256.179 21.7652 257.613 21.7652C258.091 21.7652 258.523 21.8118 258.908 21.9049C259.293 21.998 259.656 22.147 259.997 22.3518V25.1547ZM268.518 25.5552C268.456 25.0213 268.251 24.5929 267.903 24.2701C267.562 23.9473 267.139 23.7859 266.637 23.7859C266.097 23.7859 265.665 23.9349 265.342 24.2329C265.026 24.5246 264.815 24.9654 264.709 25.5552H268.518ZM271.786 27.4269H264.635C264.641 28.1532 264.827 28.715 265.193 29.1123C265.56 29.5034 266.078 29.699 266.748 29.699C267.251 29.699 267.673 29.6059 268.015 29.4196C268.362 29.2272 268.626 28.9447 268.806 28.5722L271.302 29.5779C271.004 30.2981 270.476 30.8537 269.719 31.2448C268.962 31.6359 268.033 31.8314 266.935 31.8314C265.296 31.8314 263.98 31.3782 262.986 30.4719C261.999 29.5593 261.506 28.3581 261.506 26.8682C261.506 25.4031 261.999 24.1863 262.986 23.2179C263.98 22.2494 265.234 21.7652 266.748 21.7652C268.307 21.7652 269.536 22.2556 270.436 23.2365C271.336 24.2173 271.786 25.5614 271.786 27.2686V27.4269Z" fill="white"/>
<rect x="73.4939" y="61.9185" width="254.929" height="67.3397" rx="3.756" fill="url(#paint3_linear_205_3575)"/>
<path d="M112.806 100.889C113.702 101.93 114.608 102.712 115.525 103.232C116.452 103.743 117.4 103.998 118.369 103.998C119.15 103.998 119.796 103.774 120.306 103.326C120.827 102.868 121.088 102.3 121.088 101.623C121.088 100.883 120.869 100.316 120.431 99.9199C120.004 99.5137 119.02 99.1022 117.478 98.6855C115.135 98.0397 113.489 97.2376 112.541 96.2793C111.603 95.3105 111.135 93.9876 111.135 92.3105C111.135 90.248 111.78 88.5762 113.072 87.2949C114.374 86.0137 116.192 85.2533 118.525 85.0137V82.8418H120.541L120.556 84.9824C121.463 85.0762 122.353 85.2897 123.228 85.623C124.103 85.946 124.968 86.3939 125.822 86.9668L123.838 91.4199C123.14 90.8262 122.421 90.3783 121.681 90.0762C120.942 89.7741 120.202 89.623 119.463 89.623C118.713 89.623 118.108 89.8001 117.65 90.1543C117.192 90.498 116.963 90.9512 116.963 91.5137C116.963 92.0866 117.166 92.5449 117.572 92.8887C117.978 93.2324 118.775 93.5605 119.963 93.873L120.166 93.9355C122.728 94.623 124.411 95.3835 125.213 96.2168C125.754 96.7793 126.166 97.4512 126.447 98.2324C126.739 99.0137 126.885 99.8783 126.885 100.826C126.885 102.993 126.228 104.79 124.916 106.217C123.603 107.644 121.848 108.472 119.65 108.701V112.498H117.635V108.764C116.155 108.743 114.796 108.467 113.556 107.936C112.317 107.404 111.124 106.581 109.978 105.467L112.806 100.889ZM149.135 97.373C148.072 97.373 147.228 97.6908 146.603 98.3262C145.989 98.9512 145.681 99.8053 145.681 100.889C145.681 101.962 145.989 102.811 146.603 103.436C147.228 104.061 148.072 104.373 149.135 104.373C150.197 104.373 151.036 104.061 151.65 103.436C152.275 102.811 152.588 101.962 152.588 100.889C152.588 99.8053 152.275 98.9512 151.65 98.3262C151.036 97.6908 150.197 97.373 149.135 97.373ZM148.853 93.7168C149.218 93.6022 149.598 93.5189 149.994 93.4668C150.39 93.4043 150.806 93.373 151.244 93.373C153.181 93.373 154.786 94.0553 156.056 95.4199C157.327 96.7741 157.963 98.498 157.963 100.592C157.963 103.113 157.166 105.133 155.572 106.654C153.989 108.165 151.864 108.92 149.197 108.92C146.541 108.92 144.431 108.17 142.869 106.67C141.306 105.17 140.525 103.154 140.525 100.623C140.525 99.321 140.786 97.9824 141.306 96.6074C141.838 95.2324 142.942 93.2324 144.619 90.6074L147.822 85.6543H154.197L148.853 93.7168ZM169.103 94.2324C169.937 94.2324 170.598 93.998 171.088 93.5293C171.577 93.0605 171.822 92.4199 171.822 91.6074C171.822 90.7949 171.582 90.1595 171.103 89.7012C170.624 89.2428 169.957 89.0137 169.103 89.0137C168.27 89.0137 167.614 89.248 167.135 89.7168C166.655 90.1751 166.416 90.8053 166.416 91.6074C166.416 92.4095 166.655 93.0501 167.135 93.5293C167.624 93.998 168.28 94.2324 169.103 94.2324ZM169.103 104.342C170.082 104.342 170.853 104.071 171.416 103.529C171.989 102.988 172.275 102.243 172.275 101.295C172.275 100.368 171.989 99.6387 171.416 99.1074C170.853 98.5658 170.082 98.2949 169.103 98.2949C168.135 98.2949 167.369 98.5658 166.806 99.1074C166.244 99.6387 165.963 100.368 165.963 101.295C165.963 102.232 166.244 102.977 166.806 103.529C167.379 104.071 168.145 104.342 169.103 104.342ZM173.135 96.0918C174.624 96.3626 175.78 97.0189 176.603 98.0605C177.426 99.0918 177.838 100.41 177.838 102.014C177.838 104.18 177.067 105.873 175.525 107.092C173.994 108.311 171.853 108.92 169.103 108.92C166.364 108.92 164.228 108.311 162.697 107.092C161.166 105.873 160.4 104.18 160.4 102.014C160.4 100.41 160.812 99.0918 161.635 98.0605C162.457 97.0189 163.614 96.3626 165.103 96.0918C163.895 95.8001 162.963 95.248 162.306 94.4355C161.65 93.6126 161.322 92.597 161.322 91.3887C161.322 89.4408 162.004 87.9251 163.369 86.8418C164.744 85.748 166.655 85.2012 169.103 85.2012C171.562 85.2012 173.478 85.748 174.853 86.8418C176.228 87.9355 176.916 89.4512 176.916 91.3887C176.916 92.597 176.588 93.6126 175.931 94.4355C175.275 95.248 174.343 95.8001 173.135 96.0918ZM180.978 105.748C180.978 104.863 181.275 104.118 181.869 103.514C182.473 102.91 183.218 102.607 184.103 102.607C185.01 102.607 185.765 102.91 186.369 103.514C186.973 104.118 187.275 104.863 187.275 105.748C187.275 106.633 186.968 107.383 186.353 107.998C185.749 108.613 184.999 108.92 184.103 108.92C183.228 108.92 182.489 108.613 181.885 107.998C181.28 107.383 180.978 106.633 180.978 105.748ZM192.166 108.311L200.76 90.7793H191.103V85.6543H208.572V86.748L198.619 108.311H192.166ZM219.103 94.2324C219.937 94.2324 220.598 93.998 221.088 93.5293C221.577 93.0605 221.822 92.4199 221.822 91.6074C221.822 90.7949 221.582 90.1595 221.103 89.7012C220.624 89.2428 219.957 89.0137 219.103 89.0137C218.27 89.0137 217.614 89.248 217.135 89.7168C216.655 90.1751 216.416 90.8053 216.416 91.6074C216.416 92.4095 216.655 93.0501 217.135 93.5293C217.624 93.998 218.28 94.2324 219.103 94.2324ZM219.103 104.342C220.082 104.342 220.853 104.071 221.416 103.529C221.989 102.988 222.275 102.243 222.275 101.295C222.275 100.368 221.989 99.6387 221.416 99.1074C220.853 98.5658 220.082 98.2949 219.103 98.2949C218.135 98.2949 217.369 98.5658 216.806 99.1074C216.244 99.6387 215.963 100.368 215.963 101.295C215.963 102.232 216.244 102.977 216.806 103.529C217.379 104.071 218.145 104.342 219.103 104.342ZM223.135 96.0918C224.624 96.3626 225.78 97.0189 226.603 98.0605C227.426 99.0918 227.838 100.41 227.838 102.014C227.838 104.18 227.067 105.873 225.525 107.092C223.994 108.311 221.853 108.92 219.103 108.92C216.364 108.92 214.228 108.311 212.697 107.092C211.166 105.873 210.4 104.18 210.4 102.014C210.4 100.41 210.812 99.0918 211.635 98.0605C212.457 97.0189 213.614 96.3626 215.103 96.0918C213.895 95.8001 212.963 95.248 212.306 94.4355C211.65 93.6126 211.322 92.597 211.322 91.3887C211.322 89.4408 212.004 87.9251 213.369 86.8418C214.744 85.748 216.655 85.2012 219.103 85.2012C221.562 85.2012 223.478 85.748 224.853 86.8418C226.228 87.9355 226.916 89.4512 226.916 91.3887C226.916 92.597 226.588 93.6126 225.931 94.4355C225.275 95.248 224.343 95.8001 223.135 96.0918ZM239.291 96.7324C240.364 96.7324 241.207 96.4199 241.822 95.7949C242.437 95.1699 242.744 94.3158 242.744 93.2324C242.744 92.1491 242.431 91.2949 241.806 90.6699C241.192 90.0345 240.353 89.7168 239.291 89.7168C238.228 89.7168 237.385 90.0345 236.76 90.6699C236.145 91.2949 235.838 92.1491 235.838 93.2324C235.838 94.3158 236.145 95.1699 236.76 95.7949C237.385 96.4199 238.228 96.7324 239.291 96.7324ZM239.572 100.389C239.218 100.493 238.838 100.576 238.431 100.639C238.036 100.701 237.619 100.732 237.181 100.732C235.244 100.732 233.64 100.055 232.369 98.7012C231.098 97.3366 230.463 95.6126 230.463 93.5293C230.463 90.998 231.254 88.972 232.838 87.4512C234.421 85.9303 236.541 85.1699 239.197 85.1699C241.853 85.1699 243.963 85.9199 245.525 87.4199C247.088 88.9199 247.869 90.9355 247.869 93.4668C247.869 94.821 247.567 96.2533 246.963 97.7637C246.358 99.2637 245.296 101.17 243.775 103.482L240.603 108.311H234.244L239.572 100.389ZM252.869 103.123H258.681L253.853 112.92H249.541L252.869 103.123ZM270.385 98.6855V92.0293C270.385 91.4147 270.395 90.9043 270.416 90.498C270.447 90.0814 270.489 89.7272 270.541 89.4355C270.343 89.8835 270.119 90.3314 269.869 90.7793C269.629 91.2272 269.332 91.7272 268.978 92.2793L264.775 98.6855H270.385ZM270.385 108.311V103.186H259.978V98.6855L268.494 85.5605H275.603V98.6855H278.135V103.186H275.603V108.311H270.385ZM290.385 98.6855V92.0293C290.385 91.4147 290.395 90.9043 290.416 90.498C290.447 90.0814 290.489 89.7272 290.541 89.4355C290.343 89.8835 290.119 90.3314 289.869 90.7793C289.629 91.2272 289.332 91.7272 288.978 92.2793L284.775 98.6855H290.385ZM290.385 108.311V103.186H279.978V98.6855L288.494 85.5605H295.603V98.6855H298.135V103.186H295.603V108.311H290.385Z" fill="#0C0D2E"/>
<path d="M150.241 152.909H151.882L153.816 158.07C153.942 158.41 154.047 158.708 154.131 158.964C154.219 159.22 154.296 159.46 154.361 159.683C154.524 159.143 154.694 158.615 154.871 158.098C154.894 158.033 154.911 157.988 154.92 157.965L156.973 152.504L159.138 158.07C159.241 158.34 159.336 158.61 159.425 158.88C159.518 159.15 159.604 159.422 159.683 159.697C159.73 159.488 159.792 159.257 159.872 159.006C159.951 158.754 160.053 158.456 160.179 158.112L162.099 152.909H163.755L159.795 163.531L157.462 157.7C157.36 157.439 157.267 157.19 157.183 156.952C157.099 156.71 157.024 156.482 156.959 156.268C156.88 156.543 156.801 156.801 156.722 157.043C156.643 157.281 156.561 157.509 156.477 157.728L154.187 163.531L150.241 152.909ZM170.215 163.133H168.699V162.274C168.429 162.656 168.113 162.94 167.749 163.126C167.391 163.313 166.979 163.406 166.513 163.406C165.577 163.406 164.839 163.087 164.299 162.449C163.764 161.806 163.496 160.929 163.496 159.816C163.496 158.759 163.771 157.907 164.32 157.26C164.87 156.608 165.587 156.282 166.471 156.282C167.012 156.282 167.472 156.396 167.854 156.624C168.241 156.848 168.522 157.171 168.699 157.595V156.512H170.215V163.133ZM168.741 159.802C168.741 159.118 168.581 158.584 168.259 158.203C167.943 157.821 167.498 157.63 166.925 157.63C166.353 157.63 165.901 157.828 165.57 158.224C165.245 158.615 165.082 159.159 165.082 159.858C165.082 160.561 165.24 161.103 165.557 161.485C165.873 161.867 166.32 162.058 166.897 162.058C167.442 162.058 167.885 161.851 168.224 161.436C168.569 161.022 168.741 160.477 168.741 159.802ZM172.38 163.133V152.308H173.895V163.133H172.38ZM176.137 163.133V152.308H177.653V163.133H176.137ZM186.201 160.046H180.907C180.945 160.666 181.128 161.15 181.459 161.499C181.79 161.844 182.23 162.016 182.779 162.016C183.268 162.016 183.675 161.913 184.001 161.709C184.327 161.504 184.611 161.173 184.853 160.717L186.131 161.429C185.759 162.095 185.298 162.591 184.748 162.917C184.199 163.243 183.554 163.406 182.814 163.406C181.752 163.406 180.907 163.082 180.279 162.435C179.65 161.788 179.336 160.924 179.336 159.844C179.336 158.806 179.659 157.954 180.307 157.288C180.959 156.617 181.794 156.282 182.814 156.282C183.88 156.282 184.711 156.587 185.307 157.197C185.903 157.807 186.201 158.661 186.201 159.76V160.046ZM184.63 159.027C184.569 158.552 184.388 158.191 184.085 157.944C183.782 157.693 183.368 157.567 182.842 157.567C182.344 157.567 181.943 157.688 181.641 157.93C181.338 158.172 181.126 158.538 181.005 159.027H184.63ZM188.143 163.133V157.839H186.983V156.512H188.143V154.005H189.658V156.512H190.818V157.839H189.658V163.133H188.143ZM198.73 159.118H201.58L200.532 156.785C200.472 156.636 200.409 156.466 200.344 156.275C200.279 156.079 200.213 155.863 200.148 155.626C200.092 155.849 200.032 156.059 199.967 156.254C199.906 156.445 199.843 156.622 199.778 156.785L198.73 159.118ZM203.326 163.133L202.167 160.5H198.116L196.929 163.133H195.183L200.134 152.504L205.079 163.133H203.326ZM210.673 159.802C210.673 159.118 210.512 158.584 210.191 158.203C209.874 157.821 209.43 157.63 208.857 157.63C208.284 157.63 207.833 157.828 207.502 158.224C207.176 158.615 207.013 159.159 207.013 159.858C207.013 160.561 207.172 161.103 207.488 161.485C207.805 161.867 208.252 162.058 208.829 162.058C209.379 162.058 209.823 161.853 210.163 161.443C210.503 161.029 210.673 160.482 210.673 159.802ZM210.631 152.308H212.147V163.133H210.631V162.274C210.361 162.656 210.044 162.94 209.681 163.126C209.323 163.313 208.911 163.406 208.445 163.406C207.509 163.406 206.771 163.087 206.231 162.449C205.696 161.806 205.428 160.929 205.428 159.816C205.428 158.759 205.703 157.907 206.252 157.26C206.802 156.608 207.519 156.282 208.403 156.282C208.943 156.282 209.404 156.396 209.786 156.624C210.172 156.848 210.454 157.171 210.631 157.595V152.308ZM218.998 159.802C218.998 159.118 218.837 158.584 218.516 158.203C218.199 157.821 217.755 157.63 217.182 157.63C216.609 157.63 216.158 157.828 215.827 158.224C215.501 158.615 215.338 159.159 215.338 159.858C215.338 160.561 215.497 161.103 215.813 161.485C216.13 161.867 216.577 162.058 217.154 162.058C217.704 162.058 218.148 161.853 218.488 161.443C218.828 161.029 218.998 160.482 218.998 159.802ZM218.956 152.308H220.471V163.133H218.956V162.274C218.686 162.656 218.369 162.94 218.006 163.126C217.648 163.313 217.236 163.406 216.77 163.406C215.834 163.406 215.096 163.087 214.556 162.449C214.021 161.806 213.753 160.929 213.753 159.816C213.753 158.759 214.028 157.907 214.577 157.26C215.126 156.608 215.843 156.282 216.728 156.282C217.268 156.282 217.729 156.396 218.111 156.624C218.497 156.848 218.779 157.171 218.956 157.595V152.308ZM224.082 157.567C224.245 157.129 224.459 156.806 224.725 156.596C224.995 156.387 225.328 156.282 225.723 156.282C225.938 156.282 226.147 156.308 226.352 156.359C226.562 156.41 226.766 156.485 226.967 156.582L226.422 157.867C226.291 157.774 226.149 157.707 225.996 157.665C225.847 157.618 225.679 157.595 225.493 157.595C224.99 157.595 224.629 157.798 224.41 158.203C224.192 158.603 224.082 159.278 224.082 160.228V163.133H222.567V156.499H224.082V157.567ZM234.209 160.046H228.915C228.952 160.666 229.136 161.15 229.467 161.499C229.797 161.844 230.237 162.016 230.787 162.016C231.276 162.016 231.683 161.913 232.009 161.709C232.335 161.504 232.619 161.173 232.861 160.717L234.139 161.429C233.767 162.095 233.306 162.591 232.756 162.917C232.207 163.243 231.562 163.406 230.822 163.406C229.76 163.406 228.915 163.082 228.287 162.435C227.658 161.788 227.344 160.924 227.344 159.844C227.344 158.806 227.667 157.954 228.314 157.288C228.966 156.617 229.802 156.282 230.822 156.282C231.888 156.282 232.719 156.587 233.315 157.197C233.911 157.807 234.209 158.661 234.209 159.76V160.046ZM232.638 159.027C232.577 158.552 232.395 158.191 232.093 157.944C231.79 157.693 231.376 157.567 230.85 157.567C230.351 157.567 229.951 157.688 229.648 157.93C229.346 158.172 229.134 158.538 229.013 159.027H232.638ZM235.033 161.932L236.29 161.248C236.383 161.578 236.556 161.83 236.807 162.002C237.058 162.174 237.382 162.26 237.778 162.26C238.118 162.26 238.383 162.183 238.574 162.03C238.77 161.872 238.867 161.657 238.867 161.387C238.867 161.029 238.523 160.722 237.834 160.465C237.601 160.382 237.422 160.312 237.296 160.256C236.588 159.963 236.092 159.665 235.808 159.362C235.529 159.059 235.389 158.691 235.389 158.258C235.389 157.667 235.62 157.188 236.081 156.82C236.546 156.452 237.161 156.268 237.924 156.268C238.437 156.268 238.874 156.364 239.237 156.554C239.605 156.741 239.873 157.008 240.041 157.358L238.965 158.098C238.886 157.888 238.746 157.723 238.546 157.602C238.35 157.476 238.122 157.413 237.862 157.413C237.573 157.413 237.34 157.483 237.163 157.623C236.991 157.758 236.905 157.94 236.905 158.168C236.905 158.512 237.296 158.827 238.078 159.111C238.325 159.199 238.516 159.271 238.651 159.327C239.261 159.569 239.696 159.844 239.957 160.151C240.222 160.454 240.355 160.833 240.355 161.29C240.355 161.951 240.115 162.47 239.636 162.847C239.156 163.219 238.495 163.406 237.652 163.406C237.005 163.406 236.467 163.285 236.039 163.043C235.61 162.8 235.275 162.43 235.033 161.932ZM241.123 161.932L242.38 161.248C242.473 161.578 242.646 161.83 242.897 162.002C243.148 162.174 243.472 162.26 243.868 162.26C244.208 162.26 244.473 162.183 244.664 162.03C244.86 161.872 244.957 161.657 244.957 161.387C244.957 161.029 244.613 160.722 243.924 160.465C243.691 160.382 243.512 160.312 243.386 160.256C242.678 159.963 242.182 159.665 241.898 159.362C241.619 159.059 241.479 158.691 241.479 158.258C241.479 157.667 241.71 157.188 242.171 156.82C242.636 156.452 243.251 156.268 244.014 156.268C244.527 156.268 244.964 156.364 245.327 156.554C245.695 156.741 245.963 157.008 246.131 157.358L245.055 158.098C244.976 157.888 244.836 157.723 244.636 157.602C244.44 157.476 244.212 157.413 243.952 157.413C243.663 157.413 243.43 157.483 243.253 157.623C243.081 157.758 242.995 157.94 242.995 158.168C242.995 158.512 243.386 158.827 244.168 159.111C244.415 159.199 244.606 159.271 244.741 159.327C245.351 159.569 245.786 159.844 246.047 160.151C246.312 160.454 246.445 160.833 246.445 161.29C246.445 161.951 246.205 162.47 245.726 162.847C245.246 163.219 244.585 163.406 243.742 163.406C243.095 163.406 242.557 163.285 242.129 163.043C241.7 162.8 241.365 162.43 241.123 161.932ZM248.359 157.581C248.359 157.334 248.447 157.122 248.624 156.945C248.805 156.769 249.022 156.68 249.273 156.68C249.529 156.68 249.746 156.766 249.923 156.939C250.1 157.111 250.188 157.325 250.188 157.581C250.188 157.837 250.1 158.054 249.923 158.231C249.746 158.407 249.529 158.496 249.273 158.496C249.017 158.496 248.801 158.407 248.624 158.231C248.447 158.054 248.359 157.837 248.359 157.581ZM248.359 162.358C248.359 162.111 248.447 161.897 248.624 161.716C248.805 161.534 249.022 161.443 249.273 161.443C249.529 161.443 249.746 161.532 249.923 161.709C250.1 161.885 250.188 162.102 250.188 162.358C250.188 162.61 250.1 162.824 249.923 163.001C249.746 163.173 249.529 163.259 249.273 163.259C249.017 163.259 248.801 163.173 248.624 163.001C248.447 162.824 248.359 162.61 248.359 162.358Z" fill="white" fill-opacity="0.73"/>
<path d="M59.03 174.88C59.03 174.502 59.1627 174.181 59.4281 173.916C59.6981 173.65 60.0217 173.518 60.3988 173.518C60.7899 173.518 61.1158 173.648 61.3766 173.909C61.642 174.169 61.7747 174.493 61.7747 174.88C61.7747 175.266 61.6396 175.594 61.3696 175.864C61.1042 176.134 60.7806 176.269 60.3988 176.269C60.0263 176.269 59.7051 176.132 59.435 175.857C59.165 175.583 59.03 175.257 59.03 174.88ZM59.1557 187.248V177.079H61.649V187.248H59.1557ZM63.5556 184.133V177.079H65.8324V178.511C66.1629 177.939 66.5447 177.519 66.9777 177.254C67.4107 176.989 67.9299 176.856 68.5352 176.856C68.9914 176.856 69.3965 176.93 69.7504 177.079C70.1089 177.224 70.3999 177.433 70.6234 177.708C70.8096 177.945 70.9423 178.234 71.0215 178.574C71.1006 178.914 71.1402 179.421 71.1402 180.097V184.133H68.6469V180.355C68.6469 179.792 68.5538 179.382 68.3675 179.126C68.186 178.87 67.8926 178.742 67.4876 178.742C66.9707 178.742 66.5936 178.933 66.3562 179.314C66.1187 179.696 66 180.315 66 181.172V184.133H63.5556ZM78.2918 180.613C78.2918 180.064 78.1451 179.631 77.8518 179.314C77.5631 178.998 77.1673 178.839 76.6645 178.839C76.1617 178.839 75.7659 178.998 75.4772 179.314C75.1886 179.631 75.0442 180.064 75.0442 180.613C75.0442 181.167 75.1862 181.603 75.4702 181.919C75.7589 182.231 76.157 182.387 76.6645 182.387C77.1673 182.387 77.5631 182.229 77.8518 181.912C78.1451 181.596 78.2918 181.163 78.2918 180.613ZM80.4987 173.308V184.133H78.208V182.988C77.8914 183.463 77.5352 183.819 77.1394 184.056C76.7437 184.289 76.3037 184.406 75.8194 184.406C74.8277 184.406 74.0385 184.063 73.4519 183.379C72.8652 182.695 72.5719 181.773 72.5719 180.613C72.5719 179.491 72.8629 178.586 73.4449 177.897C74.0315 177.203 74.7951 176.856 75.7356 176.856C76.3316 176.856 76.8158 176.963 77.1883 177.177C77.5654 177.391 77.9007 177.75 78.194 178.253C78.1661 178.085 78.1451 177.897 78.1311 177.687C78.1172 177.473 78.1102 177.242 78.1102 176.996V173.308H80.4987ZM81.686 183.547L82.2028 181.647C82.566 181.964 82.964 182.208 83.3971 182.38C83.8347 182.548 84.2747 182.632 84.717 182.632C85.029 182.632 85.2664 182.583 85.4294 182.485C85.5923 182.383 85.6738 182.236 85.6738 182.045C85.6738 181.733 85.3456 181.5 84.6891 181.347C84.4749 181.295 84.3026 181.251 84.1723 181.214C83.4273 181.009 82.8849 180.741 82.545 180.411C82.2098 180.076 82.0422 179.643 82.0422 179.112C82.0422 178.427 82.2982 177.88 82.8104 177.471C83.3272 177.061 84.0256 176.856 84.9056 176.856C85.3572 176.856 85.8158 176.91 86.2814 177.017C86.7517 177.119 87.2313 177.28 87.7201 177.499L87.2033 179.21C86.8727 178.986 86.5375 178.816 86.1976 178.7C85.8577 178.583 85.5179 178.525 85.178 178.525C84.894 178.525 84.6798 178.569 84.5354 178.658C84.3911 178.746 84.3189 178.874 84.3189 179.042C84.3189 179.293 84.6449 179.505 85.2967 179.678C85.4457 179.719 85.5574 179.75 85.6319 179.768C86.4933 180.015 87.0916 180.306 87.4268 180.641C87.7667 180.972 87.9366 181.421 87.9366 181.989C87.9366 182.711 87.6596 183.295 87.1055 183.742C86.5515 184.185 85.8182 184.406 84.9056 184.406C84.2863 184.406 83.7113 184.334 83.1805 184.189C82.6498 184.049 82.1516 183.835 81.686 183.547ZM94.334 179.398C94.0918 179.184 93.859 179.028 93.6356 178.93C93.4121 178.832 93.1769 178.784 92.9302 178.784C92.4366 178.784 92.0432 178.947 91.7499 179.272C91.4612 179.598 91.3169 180.041 91.3169 180.599C91.3169 181.14 91.4682 181.57 91.7708 181.891C92.0735 182.213 92.4809 182.373 92.993 182.373C93.2445 182.373 93.4796 182.324 93.6984 182.227C93.9219 182.124 94.1337 181.968 94.334 181.759V183.917C94.036 184.084 93.738 184.208 93.44 184.287C93.142 184.366 92.8347 184.406 92.5181 184.406C91.4333 184.406 90.5533 184.059 89.8782 183.365C89.2077 182.667 88.8725 181.749 88.8725 180.613C88.8725 179.51 89.2147 178.609 89.8991 177.911C90.5882 177.208 91.4705 176.856 92.5461 176.856C92.9046 176.856 93.2282 176.891 93.5168 176.961C93.8055 177.031 94.0779 177.142 94.334 177.296V179.398ZM99.4253 179.245C98.9504 179.245 98.5732 179.387 98.2939 179.671C98.0192 179.95 97.8818 180.332 97.8818 180.816C97.8818 181.295 98.0192 181.675 98.2939 181.954C98.5732 182.234 98.9504 182.373 99.4253 182.373C99.9002 182.373 100.275 182.234 100.55 181.954C100.829 181.675 100.969 181.295 100.969 180.816C100.969 180.332 100.829 179.95 100.55 179.671C100.275 179.387 99.9002 179.245 99.4253 179.245ZM99.2996 177.61C99.4625 177.559 99.6325 177.522 99.8094 177.499C99.9863 177.471 100.173 177.457 100.368 177.457C101.234 177.457 101.951 177.762 102.519 178.372C103.087 178.977 103.371 179.747 103.371 180.683C103.371 181.81 103.015 182.713 102.303 183.393C101.595 184.068 100.645 184.406 99.4532 184.406C98.2659 184.406 97.3231 184.07 96.6247 183.4C95.9263 182.73 95.5771 181.829 95.5771 180.697C95.5771 180.115 95.6935 179.517 95.9263 178.902C96.1638 178.288 96.6573 177.394 97.4069 176.22L98.8386 174.007H101.688L99.2996 177.61ZM105.25 184.133L109.091 176.297H104.775V174.007H112.583V174.495L108.134 184.133H105.25ZM113.714 181.759V179.482H118.464V181.759H113.714ZM120.265 184.133V173.308H122.71V177.107C122.71 177.359 122.703 177.592 122.689 177.806C122.675 178.02 122.654 178.213 122.626 178.385C122.938 177.859 123.306 177.473 123.729 177.226C124.153 176.979 124.658 176.856 125.245 176.856C125.701 176.856 126.106 176.93 126.46 177.079C126.819 177.224 127.11 177.433 127.333 177.708C127.519 177.945 127.652 178.234 127.731 178.574C127.81 178.914 127.85 179.421 127.85 180.097V184.133H125.357V180.355C125.357 179.792 125.264 179.382 125.077 179.126C124.896 178.87 124.602 178.742 124.197 178.742C123.681 178.742 123.303 178.933 123.066 179.314C122.829 179.696 122.71 180.315 122.71 181.172V184.133H120.265ZM131.831 180.613C131.831 181.163 131.973 181.596 132.257 181.912C132.546 182.229 132.941 182.387 133.444 182.387C133.952 182.387 134.35 182.231 134.638 181.919C134.927 181.603 135.071 181.167 135.071 180.613C135.071 180.064 134.925 179.631 134.631 179.314C134.343 178.998 133.947 178.839 133.444 178.839C132.941 178.839 132.546 178.998 132.257 179.314C131.973 179.631 131.831 180.064 131.831 180.613ZM129.624 173.308H131.999V176.996C131.999 177.294 131.992 177.543 131.978 177.743C131.968 177.939 131.952 178.108 131.929 178.253C132.217 177.75 132.548 177.391 132.92 177.177C133.298 176.963 133.786 176.856 134.387 176.856C135.328 176.856 136.089 177.203 136.671 177.897C137.257 178.586 137.551 179.491 137.551 180.613C137.551 181.773 137.255 182.695 136.664 183.379C136.077 184.063 135.29 184.406 134.303 184.406C133.819 184.406 133.379 184.289 132.983 184.056C132.588 183.819 132.231 183.463 131.915 182.988V184.133H129.624V173.308ZM143.913 179.698C143.867 179.298 143.713 178.977 143.452 178.735C143.196 178.493 142.88 178.372 142.502 178.372C142.097 178.372 141.774 178.483 141.532 178.707C141.294 178.926 141.136 179.256 141.057 179.698H143.913ZM146.365 181.102H141.001C141.006 181.647 141.145 182.068 141.42 182.366C141.695 182.66 142.083 182.806 142.586 182.806C142.963 182.806 143.28 182.737 143.536 182.597C143.797 182.452 143.995 182.241 144.13 181.961L146.001 182.716C145.778 183.256 145.382 183.672 144.814 183.966C144.246 184.259 143.55 184.406 142.726 184.406C141.497 184.406 140.51 184.066 139.765 183.386C139.024 182.702 138.654 181.801 138.654 180.683C138.654 179.584 139.024 178.672 139.765 177.945C140.51 177.219 141.45 176.856 142.586 176.856C143.755 176.856 144.677 177.224 145.352 177.959C146.027 178.695 146.365 179.703 146.365 180.984V181.102ZM147.81 184.133V177.079H150.157V178.742C150.399 178.136 150.73 177.682 151.149 177.38C151.568 177.077 152.075 176.926 152.671 176.926C152.769 176.926 152.867 176.93 152.964 176.94C153.067 176.944 153.169 176.954 153.272 176.968L153.034 179.231C152.885 179.179 152.739 179.142 152.594 179.119C152.45 179.096 152.31 179.084 152.175 179.084C151.57 179.084 151.102 179.27 150.771 179.643C150.446 180.01 150.283 180.534 150.283 181.214V184.133H147.81ZM161.429 177.079V180.683C161.429 181.479 161.364 182.071 161.233 182.457C161.108 182.839 160.894 183.179 160.591 183.477C160.279 183.789 159.89 184.022 159.425 184.175C158.959 184.329 158.412 184.406 157.783 184.406C157.159 184.406 156.615 184.329 156.149 184.175C155.688 184.022 155.295 183.789 154.969 183.477C154.666 183.188 154.452 182.851 154.326 182.464C154.201 182.073 154.138 181.479 154.138 180.683V177.079H156.512V180.844C156.512 181.435 156.61 181.864 156.806 182.129C157.001 182.39 157.318 182.52 157.755 182.52C158.198 182.52 158.514 182.392 158.705 182.136C158.901 181.875 158.999 181.444 158.999 180.844V177.079H161.429ZM163.664 184.133L167.505 176.297H163.189V174.007H170.997V174.495L166.548 184.133H163.664ZM172.128 181.759V179.482H176.878V181.759H172.128ZM180.9 180.613C180.9 181.163 181.042 181.596 181.326 181.912C181.615 182.229 182.011 182.387 182.514 182.387C183.021 182.387 183.419 182.231 183.708 181.919C183.997 181.603 184.141 181.167 184.141 180.613C184.141 180.064 183.994 179.631 183.701 179.314C183.412 178.998 183.016 178.839 182.514 178.839C182.011 178.839 181.615 178.998 181.326 179.314C181.042 179.631 180.9 180.064 180.9 180.613ZM178.693 173.308H181.068V176.996C181.068 177.294 181.061 177.543 181.047 177.743C181.038 177.939 181.021 178.108 180.998 178.253C181.287 177.75 181.617 177.391 181.99 177.177C182.367 176.963 182.856 176.856 183.456 176.856C184.397 176.856 185.158 177.203 185.74 177.897C186.327 178.586 186.62 179.491 186.62 180.613C186.62 181.773 186.325 182.695 185.733 183.379C185.147 184.063 184.36 184.406 183.373 184.406C182.888 184.406 182.448 184.289 182.053 184.056C181.657 183.819 181.301 183.463 180.984 182.988V184.133H178.693V173.308ZM188.366 184.133V178.839H187.305V177.079H188.366V175.634C188.366 174.814 188.59 174.197 189.037 173.783C189.484 173.369 190.152 173.161 191.041 173.161C191.167 173.161 191.316 173.173 191.488 173.196C191.665 173.22 191.854 173.252 192.054 173.294V175.194C191.942 175.152 191.837 175.122 191.739 175.103C191.646 175.08 191.56 175.068 191.481 175.068C191.248 175.068 191.078 175.138 190.971 175.278C190.864 175.417 190.811 175.643 190.811 175.955V177.079H192.054V178.839H190.811V184.133H188.366ZM195.28 184.133L192.11 177.079H194.764L195.965 180.194C195.979 180.227 195.995 180.267 196.014 180.313C196.167 180.723 196.263 181.051 196.3 181.298C196.333 181.07 196.423 180.765 196.572 180.383C196.605 180.299 196.628 180.236 196.642 180.194L197.843 177.079H200.434L197.229 184.133H195.28ZM201.608 184.133V178.839H200.553V177.079H201.608V174.977H204.059V177.079H205.114V178.839H204.059V184.133H201.608ZM205.896 187.248L207.879 183.058L205.037 177.079H207.796L208.78 179.629C208.864 179.843 208.934 180.043 208.99 180.229C209.046 180.411 209.088 180.581 209.116 180.739C209.144 180.571 209.183 180.399 209.234 180.222C209.29 180.041 209.36 179.843 209.444 179.629L210.443 177.079H213.103L208.669 187.248H205.896ZM220.618 174.007V176.095H216.742L216.54 177.408C216.749 177.361 216.959 177.326 217.168 177.303C217.382 177.28 217.592 177.268 217.797 177.268C218.835 177.268 219.654 177.58 220.255 178.204C220.856 178.823 221.156 179.666 221.156 180.732C221.156 181.868 220.781 182.764 220.032 183.421C219.287 184.077 218.265 184.406 216.966 184.406C216.346 184.406 215.769 184.336 215.234 184.196C214.698 184.056 214.228 183.854 213.823 183.589L214.004 181.116L214.221 181.158C214.472 181.535 214.808 181.833 215.227 182.052C215.646 182.266 216.097 182.373 216.581 182.373C217.229 182.373 217.729 182.22 218.083 181.912C218.437 181.6 218.614 181.163 218.614 180.599C218.614 180.059 218.423 179.617 218.041 179.272C217.659 178.928 217.163 178.756 216.554 178.756C216.144 178.756 215.774 178.825 215.443 178.965C215.112 179.1 214.814 179.307 214.549 179.587L214.207 179.384L215.052 174.007H220.618ZM226.394 179.245C225.919 179.245 225.542 179.387 225.263 179.671C224.988 179.95 224.85 180.332 224.85 180.816C224.85 181.295 224.988 181.675 225.263 181.954C225.542 182.234 225.919 182.373 226.394 182.373C226.869 182.373 227.244 182.234 227.518 181.954C227.798 181.675 227.937 181.295 227.937 180.816C227.937 180.332 227.798 179.95 227.518 179.671C227.244 179.387 226.869 179.245 226.394 179.245ZM226.268 177.61C226.431 177.559 226.601 177.522 226.778 177.499C226.955 177.471 227.141 177.457 227.337 177.457C228.203 177.457 228.92 177.762 229.488 178.372C230.056 178.977 230.34 179.747 230.34 180.683C230.34 181.81 229.984 182.713 229.271 183.393C228.564 184.068 227.614 184.406 226.422 184.406C225.235 184.406 224.292 184.07 223.593 183.4C222.895 182.73 222.546 181.829 222.546 180.697C222.546 180.115 222.662 179.517 222.895 178.902C223.132 178.288 223.626 177.394 224.376 176.22L225.807 174.007H228.657L226.268 177.61ZM231.744 181.759V179.482H236.493V181.759H231.744ZM237.966 180.746H240.557V180.914C240.557 181.361 240.662 181.701 240.872 181.933C241.081 182.161 241.391 182.276 241.801 182.276C242.229 182.276 242.557 182.166 242.785 181.947C243.013 181.724 243.128 181.403 243.128 180.984C243.128 180.513 243.004 180.169 242.757 179.95C242.515 179.726 242.133 179.615 241.612 179.615C241.528 179.615 241.463 179.617 241.416 179.622C241.375 179.622 241.335 179.622 241.298 179.622V177.98H241.444C241.915 177.98 242.275 177.878 242.527 177.673C242.778 177.468 242.904 177.17 242.904 176.779C242.904 176.467 242.797 176.213 242.583 176.018C242.373 175.822 242.103 175.725 241.773 175.725C241.419 175.725 241.144 175.82 240.949 176.011C240.753 176.202 240.651 176.472 240.641 176.821H238.169C238.188 175.867 238.52 175.126 239.168 174.6C239.819 174.069 240.73 173.804 241.898 173.804C242.941 173.804 243.761 174.041 244.357 174.516C244.957 174.987 245.258 175.627 245.258 176.437C245.258 176.954 245.12 177.394 244.846 177.757C244.571 178.115 244.17 178.376 243.644 178.539C244.282 178.656 244.778 178.935 245.132 179.377C245.486 179.815 245.663 180.376 245.663 181.06C245.663 182.052 245.309 182.858 244.601 183.477C243.898 184.096 242.979 184.406 241.842 184.406C240.651 184.406 239.705 184.087 239.007 183.449C238.313 182.806 237.966 181.938 237.966 180.844V180.746ZM252.095 179.698C252.048 179.298 251.895 178.977 251.634 178.735C251.378 178.493 251.061 178.372 250.684 178.372C250.279 178.372 249.956 178.483 249.713 178.707C249.476 178.926 249.318 179.256 249.238 179.698H252.095ZM254.546 181.102H249.183C249.187 181.647 249.327 182.068 249.602 182.366C249.876 182.66 250.265 182.806 250.768 182.806C251.145 182.806 251.462 182.737 251.718 182.597C251.979 182.452 252.176 182.241 252.311 181.961L254.183 182.716C253.96 183.256 253.564 183.672 252.996 183.966C252.428 184.259 251.732 184.406 250.908 184.406C249.678 184.406 248.691 184.066 247.946 183.386C247.206 182.702 246.836 181.801 246.836 180.683C246.836 179.584 247.206 178.672 247.946 177.945C248.691 177.219 249.632 176.856 250.768 176.856C251.937 176.856 252.859 177.224 253.534 177.959C254.209 178.695 254.546 179.703 254.546 180.984V181.102ZM261.558 177.079L262.599 180.194L262.62 180.25C262.773 180.688 262.871 181.037 262.913 181.298C262.941 181.149 262.976 180.993 263.018 180.83C263.064 180.667 263.13 180.457 263.213 180.201L264.275 177.079H266.852L263.891 184.133H262.131L261.083 180.942C261.027 180.76 260.976 180.578 260.93 180.397C260.888 180.211 260.848 180.027 260.811 179.845C260.76 180.124 260.669 180.476 260.539 180.9L260.525 180.949L259.484 184.133H257.724L254.777 177.079H257.34L258.394 180.201C258.474 180.429 258.536 180.63 258.583 180.802C258.63 180.97 258.667 181.135 258.695 181.298C258.737 181.065 258.827 180.741 258.967 180.327C258.986 180.271 259 180.229 259.009 180.201L260.057 177.079H261.558ZM272.851 180.599C272.851 180.05 272.705 179.615 272.411 179.293C272.118 178.972 271.718 178.812 271.21 178.812C270.703 178.812 270.302 178.972 270.009 179.293C269.72 179.61 269.576 180.045 269.576 180.599C269.576 181.149 269.723 181.582 270.016 181.898C270.309 182.215 270.707 182.373 271.21 182.373C271.718 182.373 272.118 182.215 272.411 181.898C272.705 181.582 272.851 181.149 272.851 180.599ZM275.037 177.079V184.133H272.754V182.988C272.428 183.477 272.06 183.835 271.65 184.063C271.245 184.292 270.768 184.406 270.218 184.406C269.278 184.406 268.526 184.063 267.963 183.379C267.399 182.69 267.117 181.768 267.117 180.613C267.117 179.463 267.411 178.551 267.997 177.876C268.589 177.196 269.383 176.856 270.379 176.856C270.91 176.856 271.366 176.97 271.748 177.198C272.134 177.422 272.465 177.769 272.74 178.239V177.079H275.037ZM282.308 180.613C282.308 180.064 282.161 179.631 281.868 179.314C281.579 178.998 281.183 178.839 280.68 178.839C280.177 178.839 279.782 178.998 279.493 179.314C279.204 179.631 279.06 180.064 279.06 180.613C279.06 181.167 279.202 181.603 279.486 181.919C279.775 182.231 280.173 182.387 280.68 182.387C281.183 182.387 281.579 182.229 281.868 181.912C282.161 181.596 282.308 181.163 282.308 180.613ZM284.515 173.308V184.133H282.224V182.988C281.907 183.463 281.551 183.819 281.155 184.056C280.759 184.289 280.32 184.406 279.835 184.406C278.844 184.406 278.054 184.063 277.468 183.379C276.881 182.695 276.588 181.773 276.588 180.613C276.588 179.491 276.879 178.586 277.461 177.897C278.047 177.203 278.811 176.856 279.751 176.856C280.347 176.856 280.832 176.963 281.204 177.177C281.581 177.391 281.917 177.75 282.21 178.253C282.182 178.085 282.161 177.897 282.147 177.687C282.133 177.473 282.126 177.242 282.126 176.996V173.308H284.515ZM286.603 184.133V178.839H285.541V177.079H286.603V175.634C286.603 174.814 286.826 174.197 287.273 173.783C287.72 173.369 288.388 173.161 289.278 173.161C289.403 173.161 289.552 173.173 289.725 173.196C289.902 173.22 290.09 173.252 290.29 173.294V175.194C290.179 175.152 290.074 175.122 289.976 175.103C289.883 175.08 289.797 175.068 289.718 175.068C289.485 175.068 289.315 175.138 289.208 175.278C289.101 175.417 289.047 175.643 289.047 175.955V177.079H290.29V178.839H289.047V184.133H286.603ZM291.359 181.759V179.482H296.108V181.759H291.359ZM307.247 184.133V180.285C307.247 179.675 307.171 179.254 307.017 179.021C306.868 178.788 306.607 178.672 306.235 178.672C305.769 178.672 305.446 178.835 305.264 179.161C305.082 179.482 304.992 180.143 304.992 181.144V184.133H302.589V180.285C302.589 179.666 302.515 179.242 302.366 179.014C302.217 178.786 301.956 178.672 301.583 178.672C301.118 178.672 300.792 178.832 300.606 179.154C300.419 179.47 300.326 180.134 300.326 181.144V184.133H297.91V177.079H300.354V178.309C300.648 177.81 300.985 177.445 301.367 177.212C301.753 176.975 302.207 176.856 302.729 176.856C303.301 176.856 303.769 176.968 304.133 177.191C304.5 177.41 304.763 177.741 304.922 178.183C305.196 177.736 305.532 177.403 305.927 177.184C306.323 176.965 306.789 176.856 307.324 176.856C307.748 176.856 308.118 176.928 308.435 177.073C308.756 177.212 309.024 177.424 309.238 177.708C309.41 177.932 309.531 178.192 309.601 178.49C309.675 178.788 309.713 179.272 309.713 179.943V180.097V184.133H307.247ZM313.694 180.613C313.694 181.163 313.836 181.596 314.12 181.912C314.408 182.229 314.804 182.387 315.307 182.387C315.814 182.387 316.212 182.231 316.501 181.919C316.79 181.603 316.934 181.167 316.934 180.613C316.934 180.064 316.787 179.631 316.494 179.314C316.205 178.998 315.81 178.839 315.307 178.839C314.804 178.839 314.408 178.998 314.12 179.314C313.836 179.631 313.694 180.064 313.694 180.613ZM311.487 173.308H313.861V176.996C313.861 177.294 313.854 177.543 313.84 177.743C313.831 177.939 313.815 178.108 313.791 178.253C314.08 177.75 314.411 177.391 314.783 177.177C315.16 176.963 315.649 176.856 316.25 176.856C317.19 176.856 317.951 177.203 318.533 177.897C319.12 178.586 319.413 179.491 319.413 180.613C319.413 181.773 319.118 182.695 318.526 183.379C317.94 184.063 317.153 184.406 316.166 184.406C315.682 184.406 315.242 184.289 314.846 184.056C314.45 183.819 314.094 183.463 313.777 182.988V184.133H311.487V173.308ZM326.293 180.585C326.293 180.041 326.146 179.615 325.853 179.307C325.564 178.995 325.164 178.839 324.651 178.839C324.135 178.839 323.727 178.995 323.429 179.307C323.136 179.615 322.989 180.041 322.989 180.585C322.989 181.126 323.136 181.552 323.429 181.864C323.727 182.175 324.135 182.331 324.651 182.331C325.159 182.331 325.559 182.175 325.853 181.864C326.146 181.552 326.293 181.126 326.293 180.585ZM328.479 177.079V184.119C328.479 185.186 328.153 185.972 327.501 186.48C326.854 186.992 325.85 187.248 324.491 187.248C323.392 187.248 322.531 187.043 321.907 186.634C321.283 186.228 320.952 185.653 320.915 184.909H323.492C323.529 185.127 323.65 185.297 323.855 185.418C324.065 185.544 324.339 185.607 324.679 185.607C325.215 185.607 325.583 185.477 325.783 185.216C325.988 184.96 326.09 184.417 326.09 183.589V182.946C325.829 183.388 325.497 183.719 325.091 183.938C324.686 184.152 324.204 184.259 323.646 184.259C322.715 184.259 321.967 183.924 321.404 183.253C320.841 182.578 320.559 181.68 320.559 180.558C320.559 179.426 320.852 178.527 321.439 177.862C322.03 177.191 322.824 176.856 323.82 176.856C324.346 176.856 324.8 176.965 325.182 177.184C325.569 177.403 325.902 177.745 326.181 178.211V177.079H328.479ZM330.371 184.133V173.308H332.816V180.159L335.379 177.079H338.466L335.295 180.474L338.752 184.133H335.477L332.816 180.997V184.133H330.371ZM344.926 180.613C344.926 180.064 344.779 179.631 344.486 179.314C344.197 178.998 343.802 178.839 343.299 178.839C342.796 178.839 342.4 178.998 342.111 179.314C341.823 179.631 341.678 180.064 341.678 180.613C341.678 181.167 341.82 181.603 342.104 181.919C342.393 182.231 342.791 182.387 343.299 182.387C343.802 182.387 344.197 182.229 344.486 181.912C344.779 181.596 344.926 181.163 344.926 180.613ZM347.133 173.308V184.133H344.842V182.988C344.526 183.463 344.169 183.819 343.774 184.056C343.378 184.289 342.938 184.406 342.454 184.406C341.462 184.406 340.673 184.063 340.086 183.379C339.499 182.695 339.206 181.773 339.206 180.613C339.206 179.491 339.497 178.586 340.079 177.897C340.666 177.203 341.429 176.856 342.37 176.856C342.966 176.856 343.45 176.963 343.823 177.177C344.2 177.391 344.535 177.75 344.828 178.253C344.8 178.085 344.779 177.897 344.765 177.687C344.751 177.473 344.744 177.242 344.744 176.996V173.308H347.133Z" fill="white"/>
<defs>
<filter id="filter0_b_205_3575" x="-9.34547" y="-9.34547" width="423.691" height="233.216" filterUnits="userSpaceOnUse" color-interpolation-filters="sRGB">
<feFlood flood-opacity="0" result="BackgroundImageFix"/>
<feGaussianBlur in="BackgroundImageFix" stdDeviation="4.67274"/>
<feComposite in2="SourceAlpha" operator="in" result="effect1_backgroundBlur_205_3575"/>
<feBlend mode="normal" in="SourceGraphic" in2="effect1_backgroundBlur_205_3575" result="shape"/>
</filter>
<linearGradient id="paint0_linear_205_3575" x1="393.117" y1="206.376" x2="286.746" y2="51.7673" gradientUnits="userSpaceOnUse">
<stop stop-color="#15BFFD"/>
<stop offset="1" stop-color="#181C1F" stop-opacity="0"/>
</linearGradient>
<linearGradient id="paint1_linear_205_3575" x1="393.117" y1="206.376" x2="286.746" y2="51.7673" gradientUnits="userSpaceOnUse">
<stop stop-color="#15BFFD"/>
<stop offset="1" stop-color="#00D1FF" stop-opacity="0"/>
</linearGradient>
<linearGradient id="paint2_linear_205_3575" x1="-2.22527" y1="-0.538515" x2="114.918" y2="174.835" gradientUnits="userSpaceOnUse">
<stop stop-color="#15BFFD"/>
<stop offset="1" stop-color="#00D1FF" stop-opacity="0"/>
</linearGradient>
<linearGradient id="paint3_linear_205_3575" x1="84.7691" y1="94.8747" x2="327.615" y2="84.502" gradientUnits="userSpaceOnUse">
<stop stop-color="#3AD6D4"/>
<stop offset="1" stop-color="#36A7EF"/>
</linearGradient>
</defs>
</svg>
