<svg width="402" height="263" viewBox="0 0 402 263" fill="none" xmlns="http://www.w3.org/2000/svg">
<g filter="url(#filter0_b_205_3709)">
<rect width="402" height="262.876" rx="11.8061" fill="white" fill-opacity="0.04"/>
<path d="M50.1449 39.8666C49.371 39.2076 48.5511 38.7134 47.6853 38.384C46.8272 38.0545 45.923 37.8898 44.9729 37.8898C43.134 37.8898 41.6361 38.4797 40.4791 39.6597C39.3297 40.8397 38.7551 42.3683 38.7551 44.2455C38.7551 46.0614 39.3144 47.5594 40.4331 48.7394C41.5594 49.9193 42.9769 50.5093 44.6856 50.5093C45.6817 50.5093 46.6279 50.3331 47.5244 49.9806C48.4285 49.6282 49.2944 49.0956 50.1219 48.3831V51.4747C49.3863 52.0034 48.5856 52.398 47.7198 52.6585C46.854 52.9191 45.9154 53.0493 44.904 53.0493C43.6167 53.0493 42.4253 52.8386 41.3296 52.4172C40.2415 51.9958 39.2838 51.3751 38.4563 50.5553C37.6364 49.7508 37.0043 48.8045 36.5599 47.7165C36.1231 46.6208 35.9048 45.4561 35.9048 44.2225C35.9048 42.9889 36.1231 41.8319 36.5599 40.7516C37.0043 39.6635 37.6441 38.7096 38.4792 37.8898C39.3144 37.0622 40.2722 36.4378 41.3526 36.0164C42.4329 35.5873 43.6014 35.3727 44.858 35.3727C45.8464 35.3727 46.7888 35.5183 47.6853 35.8095C48.5818 36.093 49.4514 36.5259 50.2943 37.1082L50.1449 39.8666ZM64.2448 47.1878C64.2448 46.1764 63.9191 45.322 63.2678 44.6248C62.6165 43.9199 61.8197 43.5674 60.8772 43.5674C59.9425 43.5674 59.1456 43.9199 58.4867 44.6248C57.8354 45.322 57.5097 46.1764 57.5097 47.1878C57.5097 48.1992 57.8354 49.0573 58.4867 49.7622C59.1456 50.4595 59.9425 50.8081 60.8772 50.8081C61.812 50.8081 62.6051 50.4595 63.2563 49.7622C63.9153 49.0573 64.2448 48.1992 64.2448 47.1878ZM54.8778 47.1648C54.8778 46.3679 55.0272 45.617 55.326 44.9121C55.6325 44.1995 56.0692 43.5674 56.6362 43.0157C57.1956 42.4717 57.8392 42.0541 58.5671 41.763C59.295 41.4718 60.0574 41.3262 60.8543 41.3262C61.6741 41.3262 62.4441 41.4718 63.1644 41.763C63.8923 42.0541 64.5436 42.4832 65.1182 43.0502C65.6929 43.6095 66.1296 44.2417 66.4285 44.9466C66.7273 45.6515 66.8767 46.3909 66.8767 47.1648C66.8767 47.9693 66.7273 48.724 66.4285 49.4289C66.1373 50.1339 65.7082 50.7583 65.1412 51.3023C64.5436 51.877 63.8808 52.3099 63.1529 52.6011C62.425 52.8999 61.6588 53.0493 60.8543 53.0493C60.0651 53.0493 59.3065 52.8999 58.5786 52.6011C57.8507 52.3099 57.2032 51.8847 56.6362 51.3253C56.0616 50.7583 55.6248 50.1224 55.326 49.4175C55.0272 48.7125 54.8778 47.9616 54.8778 47.1648ZM71.874 52.6011V41.7055H74.2186V43.4869C74.7166 42.7361 75.3028 42.1882 75.977 41.8434C76.6513 41.4986 77.4712 41.3262 78.4366 41.3262C79.2488 41.3262 79.9384 41.4565 80.5054 41.717C81.08 41.9698 81.5283 42.3491 81.8501 42.8548C82.0416 43.1536 82.1795 43.5023 82.2638 43.9007C82.3481 44.2991 82.3903 44.9964 82.3903 45.9925V52.6011H79.8732V47.0039C79.8732 45.5711 79.697 44.6209 79.3445 44.1536C78.9998 43.6785 78.3829 43.441 77.4941 43.441C76.9118 43.441 76.3908 43.5482 75.9311 43.7628C75.479 43.9773 75.1227 44.28 74.8622 44.6708C74.6783 44.9313 74.548 45.2684 74.4714 45.6822C74.4025 46.0882 74.368 46.7395 74.368 47.636V52.6011H71.874ZM91.8928 53.2562L86.1807 41.7055H88.9046L91.2837 47.1878C91.3603 47.3563 91.4523 47.6092 91.5595 47.9463C91.6668 48.2835 91.7779 48.6857 91.8928 49.1531C91.9695 48.8236 92.0576 48.498 92.1572 48.1762C92.2645 47.8467 92.3909 47.5172 92.5365 47.1878L94.9041 41.7055H97.6165L91.8928 53.2562ZM112.038 47.5211H103.326C103.388 48.5401 103.69 49.337 104.234 49.9117C104.778 50.4787 105.502 50.7622 106.406 50.7622C107.211 50.7622 107.881 50.5936 108.418 50.2565C108.954 49.9193 109.422 49.3753 109.82 48.6244L111.923 49.7967C111.31 50.8924 110.552 51.7084 109.648 52.2448C108.743 52.7811 107.682 53.0493 106.464 53.0493C104.717 53.0493 103.326 52.5168 102.292 51.4518C101.258 50.3867 100.74 48.9654 100.74 47.1878C100.74 45.4791 101.273 44.0769 102.338 42.9812C103.411 41.8779 104.786 41.3262 106.464 41.3262C108.219 41.3262 109.586 41.8281 110.567 42.8318C111.548 43.8356 112.038 45.2416 112.038 47.0498V47.5211ZM109.452 45.8431C109.353 45.0615 109.054 44.4677 108.556 44.0616C108.058 43.6479 107.376 43.441 106.51 43.441C105.69 43.441 105.031 43.6402 104.533 44.0386C104.035 44.4371 103.686 45.0385 103.487 45.8431H109.452ZM119.495 43.441C119.763 42.7207 120.116 42.1882 120.552 41.8434C120.997 41.4986 121.545 41.3262 122.196 41.3262C122.548 41.3262 122.893 41.3684 123.23 41.4526C123.575 41.5369 123.912 41.6595 124.242 41.8204L123.345 43.9352C123.131 43.7819 122.897 43.6708 122.644 43.6019C122.399 43.5253 122.123 43.4869 121.817 43.4869C120.989 43.4869 120.395 43.8203 120.035 44.4869C119.675 45.1458 119.495 46.2568 119.495 47.8199V52.6011H117.001V41.6825H119.495V43.441ZM128.607 52.6011V43.8892H126.699V41.7055H128.607V37.5794H131.101V41.7055H133.009V43.8892H131.101V52.6011H128.607Z" fill="white"/>
<rect x="34.9482" y="72.9042" width="332.104" height="43.3511" rx="4.53563" fill="#08F0FF" fill-opacity="0.08" stroke="#08F0FF" stroke-width="0.477435"/>
<path d="M48.4142 97.0732C48.8173 97.542 49.2251 97.8936 49.6376 98.1279C50.0548 98.3576 50.4813 98.4725 50.9173 98.4725C51.2688 98.4725 51.5595 98.3717 51.7892 98.1701C52.0235 97.9639 52.1407 97.7084 52.1407 97.4037C52.1407 97.0709 52.0423 96.8154 51.8454 96.6373C51.6532 96.4545 51.2103 96.2693 50.5165 96.0818C49.4618 95.7912 48.7212 95.4303 48.2946 94.999C47.8728 94.5631 47.6618 93.9678 47.6618 93.2131C47.6618 92.285 47.9524 91.5326 48.5337 90.9561C49.1196 90.3795 49.9376 90.0373 50.9876 89.9295V88.9521H51.8946L51.9017 89.9154C52.3095 89.9576 52.7103 90.0537 53.104 90.2037C53.4978 90.349 53.8868 90.5506 54.2712 90.8084L53.3782 92.8123C53.0642 92.5451 52.7407 92.3436 52.4079 92.2076C52.0751 92.0717 51.7423 92.0037 51.4095 92.0037C51.072 92.0037 50.8001 92.0834 50.5938 92.2428C50.3876 92.3975 50.2845 92.6014 50.2845 92.8545C50.2845 93.1123 50.3759 93.3186 50.5587 93.4732C50.7415 93.6279 51.1001 93.7756 51.6345 93.9162L51.7259 93.9443C52.879 94.2537 53.636 94.5959 53.997 94.9709C54.2407 95.224 54.4259 95.5264 54.5524 95.8779C54.6837 96.2295 54.7493 96.6186 54.7493 97.0451C54.7493 98.0201 54.454 98.8287 53.8634 99.4709C53.2728 100.113 52.4829 100.486 51.4938 100.589V102.297H50.5868V100.617C49.9212 100.608 49.3095 100.483 48.7517 100.244C48.1938 100.005 47.6571 99.635 47.1415 99.1334L48.4142 97.0732ZM59.2001 100.413V92.5521H56.9923L58.2017 90.2178H61.7595V100.413H59.2001ZM73.136 95.442C73.136 97.0732 72.7892 98.3553 72.0954 99.2881C71.4063 100.221 70.4571 100.687 69.2478 100.687C68.0384 100.687 67.0845 100.214 66.386 99.267C65.6923 98.3154 65.3454 97.0076 65.3454 95.3436C65.3454 93.6842 65.6923 92.3811 66.386 91.4342C67.0845 90.4873 68.0384 90.0139 69.2478 90.0139C70.4759 90.0139 71.4298 90.4896 72.1095 91.4412C72.7938 92.3881 73.136 93.7217 73.136 95.442ZM67.9399 95.3436C67.9399 96.4686 68.0431 97.2912 68.2493 97.8115C68.4603 98.3271 68.7931 98.585 69.2478 98.585C69.6931 98.585 70.0188 98.3248 70.2251 97.8045C70.436 97.2842 70.5415 96.4639 70.5415 95.3436C70.5415 94.2326 70.436 93.4146 70.2251 92.8896C70.0188 92.3646 69.6931 92.1021 69.2478 92.1021C68.7884 92.1021 68.4556 92.36 68.2493 92.8756C68.0431 93.3865 67.9399 94.2092 67.9399 95.3436ZM82.136 95.442C82.136 97.0732 81.7892 98.3553 81.0954 99.2881C80.4063 100.221 79.4571 100.687 78.2478 100.687C77.0384 100.687 76.0845 100.214 75.386 99.267C74.6923 98.3154 74.3454 97.0076 74.3454 95.3436C74.3454 93.6842 74.6923 92.3811 75.386 91.4342C76.0845 90.4873 77.0384 90.0139 78.2478 90.0139C79.4759 90.0139 80.4298 90.4896 81.1095 91.4412C81.7938 92.3881 82.136 93.7217 82.136 95.442ZM76.9399 95.3436C76.9399 96.4686 77.0431 97.2912 77.2493 97.8115C77.4603 98.3271 77.7931 98.585 78.2478 98.585C78.6931 98.585 79.0188 98.3248 79.2251 97.8045C79.436 97.2842 79.5415 96.4639 79.5415 95.3436C79.5415 94.2326 79.436 93.4146 79.2251 92.8896C79.0188 92.3646 78.6931 92.1021 78.2478 92.1021C77.7884 92.1021 77.4556 92.36 77.2493 92.8756C77.0431 93.3865 76.9399 94.2092 76.9399 95.3436ZM91.136 95.442C91.136 97.0732 90.7892 98.3553 90.0954 99.2881C89.4063 100.221 88.4571 100.687 87.2478 100.687C86.0384 100.687 85.0845 100.214 84.386 99.267C83.6923 98.3154 83.3454 97.0076 83.3454 95.3436C83.3454 93.6842 83.6923 92.3811 84.386 91.4342C85.0845 90.4873 86.0384 90.0139 87.2478 90.0139C88.4759 90.0139 89.4298 90.4896 90.1095 91.4412C90.7938 92.3881 91.136 93.7217 91.136 95.442ZM85.9399 95.3436C85.9399 96.4686 86.0431 97.2912 86.2493 97.8115C86.4603 98.3271 86.7931 98.585 87.2478 98.585C87.6931 98.585 88.0188 98.3248 88.2251 97.8045C88.436 97.2842 88.5415 96.4639 88.5415 95.3436C88.5415 94.2326 88.436 93.4146 88.2251 92.8896C88.0188 92.3646 87.6931 92.1021 87.2478 92.1021C86.7884 92.1021 86.4556 92.36 86.2493 92.8756C86.0431 93.3865 85.9399 94.2092 85.9399 95.3436Z" fill="white"/>
<rect x="284.79" y="77.8247" width="75.6257" height="34.3753" rx="4.49559" fill="#3AD6D4"/>
<path d="M296.135 90.6013H298.934V95.6075C298.934 96.3435 298.952 96.8731 298.99 97.1966C299.027 97.5153 299.091 97.7825 299.18 97.9981C299.287 98.2606 299.475 98.4622 299.742 98.6028C300.009 98.7388 300.335 98.8067 300.72 98.8067C301.104 98.8067 301.427 98.7388 301.69 98.6028C301.957 98.4622 302.147 98.2606 302.259 97.9981C302.348 97.7825 302.412 97.5153 302.449 97.1966C302.487 96.8731 302.505 96.3435 302.505 95.6075V94.9044V90.6013H305.297V96.0435C305.297 97.1731 305.229 98.0075 305.093 98.5466C304.957 99.081 304.727 99.538 304.404 99.9177C304.052 100.335 303.57 100.649 302.955 100.86C302.341 101.066 301.596 101.169 300.72 101.169C299.838 101.169 299.091 101.066 298.477 100.86C297.867 100.649 297.384 100.335 297.028 99.9177C296.709 99.538 296.48 99.081 296.339 98.5466C296.203 98.0075 296.135 97.1731 296.135 96.0435V94.9747V90.6013ZM307.891 97.5692C308.309 98.0427 308.719 98.3966 309.122 98.631C309.53 98.8653 309.935 98.9825 310.338 98.9825C310.713 98.9825 311.02 98.8817 311.259 98.6802C311.503 98.4786 311.625 98.2231 311.625 97.9138C311.625 97.5716 311.52 97.3091 311.309 97.1263C311.102 96.9388 310.631 96.7466 309.895 96.5497C308.887 96.2778 308.175 95.9239 307.758 95.488C307.341 95.0521 307.132 94.4544 307.132 93.695C307.132 92.7106 307.46 91.9091 308.116 91.2903C308.777 90.6669 309.633 90.3552 310.683 90.3552C311.25 90.3552 311.787 90.4325 312.293 90.5872C312.804 90.7372 313.287 90.9669 313.741 91.2763L312.862 93.2942C312.544 93.0224 312.216 92.8185 311.878 92.6825C311.545 92.5419 311.215 92.4716 310.887 92.4716C310.549 92.4716 310.275 92.5536 310.064 92.7177C309.853 92.8771 309.748 93.0833 309.748 93.3364C309.748 93.5942 309.839 93.8005 310.022 93.9552C310.209 94.1099 310.568 94.2575 311.098 94.3981L311.224 94.4333C312.368 94.7427 313.12 95.0825 313.481 95.4528C313.725 95.706 313.91 96.0106 314.037 96.3669C314.163 96.7185 314.227 97.1099 314.227 97.5411C314.227 98.6333 313.868 99.5122 313.151 100.178C312.434 100.839 311.477 101.169 310.282 101.169C309.565 101.169 308.911 101.047 308.32 100.804C307.734 100.56 307.17 100.178 306.626 99.6575L307.891 97.5692ZM315.802 100.895V90.6013H317.946C319.545 90.6013 320.674 90.6763 321.335 90.8263C322.001 90.9763 322.584 91.2271 323.086 91.5786C323.737 92.0333 324.232 92.6169 324.57 93.3294C324.907 94.0372 325.076 94.8458 325.076 95.7552C325.076 96.6646 324.907 97.4755 324.57 98.188C324.232 98.8958 323.737 99.4771 323.086 99.9317C322.589 100.279 322.022 100.527 321.384 100.677C320.747 100.822 319.758 100.895 318.417 100.895H317.946H315.802ZM318.579 98.5888H319.05C320.152 98.5888 320.955 98.3638 321.462 97.9138C321.968 97.4591 322.221 96.7396 322.221 95.7552C322.221 94.7708 321.968 94.0489 321.462 93.5896C320.955 93.1302 320.152 92.9005 319.05 92.9005H318.579V98.5888Z" fill="#0D314B"/>
<path d="M341.487 95.6527L344.501 92.8311C344.8 92.5517 345.283 92.5518 345.582 92.8311C345.88 93.1104 345.88 93.5633 345.582 93.8425L341.588 97.5803C341.307 97.8437 340.851 97.8437 340.57 97.5803L336.576 93.8425C336.278 93.5633 336.278 93.1104 336.576 92.8311C336.875 92.5518 337.359 92.5518 337.657 92.8311L340.672 95.6527C340.897 95.8634 341.262 95.8634 341.487 95.6527Z" fill="#0D314B"/>
<rect x="34.9482" y="137.358" width="332.104" height="43.3511" rx="4.53563" fill="#08F0FF" fill-opacity="0.08" stroke="#08F0FF" stroke-width="0.477435"/>
<path d="M55.136 159.896C55.136 161.527 54.7892 162.809 54.0954 163.742C53.4063 164.675 52.4571 165.141 51.2478 165.141C50.0384 165.141 49.0845 164.667 48.386 163.721C47.6923 162.769 47.3454 161.461 47.3454 159.797C47.3454 158.138 47.6923 156.835 48.386 155.888C49.0845 154.941 50.0384 154.467 51.2478 154.467C52.4759 154.467 53.4298 154.943 54.1095 155.895C54.7938 156.842 55.136 158.175 55.136 159.896ZM49.9399 159.797C49.9399 160.922 50.0431 161.745 50.2493 162.265C50.4603 162.781 50.7931 163.039 51.2478 163.039C51.6931 163.039 52.0188 162.778 52.2251 162.258C52.436 161.738 52.5415 160.917 52.5415 159.797C52.5415 158.686 52.436 157.868 52.2251 157.343C52.0188 156.818 51.6931 156.556 51.2478 156.556C50.7884 156.556 50.4556 156.814 50.2493 157.329C50.0431 157.84 49.9399 158.663 49.9399 159.797ZM56.5774 163.714C56.5774 163.315 56.711 162.98 56.9782 162.708C57.2501 162.436 57.5853 162.3 57.9837 162.3C58.3915 162.3 58.7313 162.436 59.0032 162.708C59.2751 162.98 59.411 163.315 59.411 163.714C59.411 164.112 59.2728 164.45 58.9962 164.726C58.7243 165.003 58.3868 165.141 57.9837 165.141C57.5899 165.141 57.2571 165.003 56.9853 164.726C56.7134 164.45 56.5774 164.112 56.5774 163.714ZM60.8313 161.457H63.4399V161.625C63.4399 162.075 63.5454 162.417 63.7563 162.652C63.9673 162.882 64.279 162.996 64.6915 162.996C65.1228 162.996 65.4532 162.886 65.6829 162.666C65.9126 162.441 66.0274 162.117 66.0274 161.696C66.0274 161.222 65.9032 160.875 65.6548 160.655C65.411 160.43 65.0267 160.317 64.5017 160.317C64.4173 160.317 64.3517 160.32 64.3048 160.325C64.2626 160.325 64.2228 160.325 64.1853 160.325V158.672H64.3329C64.8063 158.672 65.1696 158.569 65.4228 158.363C65.6759 158.157 65.8024 157.857 65.8024 157.463C65.8024 157.149 65.6946 156.893 65.479 156.696C65.2681 156.5 64.9962 156.401 64.6634 156.401C64.3071 156.401 64.0306 156.497 63.8337 156.689C63.6368 156.882 63.5337 157.153 63.5243 157.505H61.0353C61.054 156.544 61.3892 155.799 62.0407 155.269C62.697 154.735 63.6134 154.467 64.7899 154.467C65.8399 154.467 66.6649 154.707 67.2649 155.185C67.8696 155.658 68.172 156.303 68.172 157.118C68.172 157.639 68.0337 158.082 67.7571 158.447C67.4806 158.808 67.0774 159.071 66.5478 159.235C67.1899 159.352 67.6892 159.633 68.0454 160.078C68.4017 160.519 68.5798 161.084 68.5798 161.773C68.5798 162.771 68.2235 163.582 67.511 164.206C66.8032 164.829 65.8774 165.141 64.7337 165.141C63.5337 165.141 62.5821 164.82 61.879 164.178C61.1806 163.531 60.8313 162.657 60.8313 161.555V161.457ZM77.3759 164.867H69.5149L74.1345 159.396C74.4157 159.064 74.622 158.764 74.7532 158.496C74.8892 158.225 74.9571 157.971 74.9571 157.737C74.9571 157.376 74.8423 157.083 74.6126 156.858C74.3876 156.628 74.0899 156.514 73.7196 156.514C73.279 156.514 72.9392 156.654 72.7001 156.935C72.4657 157.217 72.3485 157.625 72.3485 158.159V158.285H69.8735V158.215C69.8735 157.048 70.2134 156.129 70.8931 155.459C71.5774 154.789 72.5103 154.453 73.6915 154.453C74.8446 154.453 75.7634 154.751 76.4478 155.346C77.1321 155.942 77.4743 156.734 77.4743 157.723C77.4743 158.206 77.3665 158.677 77.1509 159.136C76.9353 159.591 76.579 160.09 76.0821 160.634L74.2259 162.68H77.3759V164.867ZM85.9329 154.671V156.774H82.0306L81.8267 158.096C82.0376 158.049 82.2485 158.014 82.4595 157.99C82.6751 157.967 82.886 157.955 83.0923 157.955C84.1376 157.955 84.9626 158.269 85.5673 158.897C86.172 159.521 86.4743 160.369 86.4743 161.442C86.4743 162.586 86.097 163.489 85.3423 164.15C84.5923 164.81 83.5634 165.141 82.2556 165.141C81.6321 165.141 81.0509 165.071 80.5118 164.93C79.9728 164.789 79.4993 164.585 79.0915 164.318L79.2743 161.829L79.4923 161.871C79.7454 162.251 80.0829 162.551 80.5048 162.771C80.9267 162.987 81.3813 163.095 81.8688 163.095C82.5204 163.095 83.0243 162.94 83.3806 162.631C83.7368 162.317 83.9149 161.876 83.9149 161.309C83.9149 160.765 83.7228 160.32 83.3384 159.973C82.954 159.626 82.4548 159.453 81.8407 159.453C81.4282 159.453 81.0556 159.523 80.7228 159.664C80.3899 159.8 80.0899 160.008 79.8228 160.289L79.4782 160.085L80.329 154.671H85.9329ZM92.3103 160.535V157.54C92.3103 157.264 92.3149 157.034 92.3243 156.851C92.3384 156.664 92.3571 156.504 92.3806 156.373C92.2915 156.575 92.1907 156.776 92.0782 156.978C91.9704 157.179 91.8368 157.404 91.6774 157.653L89.786 160.535H92.3103ZM92.3103 164.867V162.56H87.6274V160.535L91.4595 154.629H94.6587V160.535H95.7978V162.56H94.6587V164.867H92.3103ZM100.748 159.945C100.27 159.945 99.8899 160.088 99.6087 160.374C99.3321 160.655 99.1938 161.039 99.1938 161.527C99.1938 162.01 99.3321 162.392 99.6087 162.673C99.8899 162.954 100.27 163.095 100.748 163.095C101.226 163.095 101.603 162.954 101.88 162.673C102.161 162.392 102.302 162.01 102.302 161.527C102.302 161.039 102.161 160.655 101.88 160.374C101.603 160.088 101.226 159.945 100.748 159.945ZM100.621 158.3C100.785 158.248 100.956 158.21 101.134 158.187C101.313 158.159 101.5 158.145 101.697 158.145C102.569 158.145 103.291 158.452 103.863 159.066C104.434 159.675 104.72 160.451 104.72 161.393C104.72 162.528 104.362 163.437 103.645 164.121C102.932 164.801 101.976 165.141 100.776 165.141C99.5806 165.141 98.6313 164.803 97.9282 164.128C97.2251 163.453 96.8735 162.546 96.8735 161.407C96.8735 160.821 96.9907 160.219 97.2251 159.6C97.4642 158.982 97.961 158.082 98.7157 156.9L100.157 154.671H103.026L100.621 158.3ZM109.734 158.532C110.109 158.532 110.406 158.426 110.627 158.215C110.847 158.004 110.957 157.716 110.957 157.35C110.957 156.985 110.849 156.699 110.634 156.492C110.418 156.286 110.118 156.183 109.734 156.183C109.359 156.183 109.063 156.289 108.848 156.5C108.632 156.706 108.524 156.989 108.524 157.35C108.524 157.711 108.632 158 108.848 158.215C109.068 158.426 109.363 158.532 109.734 158.532ZM109.734 163.081C110.174 163.081 110.521 162.959 110.774 162.715C111.032 162.471 111.161 162.136 111.161 161.71C111.161 161.292 111.032 160.964 110.774 160.725C110.521 160.482 110.174 160.36 109.734 160.36C109.298 160.36 108.953 160.482 108.7 160.725C108.447 160.964 108.32 161.292 108.32 161.71C108.32 162.132 108.447 162.467 108.7 162.715C108.958 162.959 109.302 163.081 109.734 163.081ZM111.548 159.368C112.218 159.49 112.738 159.785 113.109 160.254C113.479 160.718 113.664 161.311 113.664 162.033C113.664 163.008 113.317 163.77 112.624 164.318C111.934 164.867 110.971 165.141 109.734 165.141C108.501 165.141 107.54 164.867 106.851 164.318C106.162 163.77 105.817 163.008 105.817 162.033C105.817 161.311 106.002 160.718 106.373 160.254C106.743 159.785 107.263 159.49 107.934 159.368C107.39 159.237 106.97 158.989 106.675 158.623C106.38 158.253 106.232 157.796 106.232 157.252C106.232 156.375 106.539 155.693 107.153 155.206C107.772 154.714 108.632 154.467 109.734 154.467C110.84 154.467 111.702 154.714 112.321 155.206C112.94 155.698 113.249 156.38 113.249 157.252C113.249 157.796 113.102 158.253 112.806 158.623C112.511 158.989 112.092 159.237 111.548 159.368ZM114.831 161.457H117.44V161.625C117.44 162.075 117.545 162.417 117.756 162.652C117.967 162.882 118.279 162.996 118.692 162.996C119.123 162.996 119.453 162.886 119.683 162.666C119.913 162.441 120.027 162.117 120.027 161.696C120.027 161.222 119.903 160.875 119.655 160.655C119.411 160.43 119.027 160.317 118.502 160.317C118.417 160.317 118.352 160.32 118.305 160.325C118.263 160.325 118.223 160.325 118.185 160.325V158.672H118.333C118.806 158.672 119.17 158.569 119.423 158.363C119.676 158.157 119.802 157.857 119.802 157.463C119.802 157.149 119.695 156.893 119.479 156.696C119.268 156.5 118.996 156.401 118.663 156.401C118.307 156.401 118.031 156.497 117.834 156.689C117.637 156.882 117.534 157.153 117.524 157.505H115.035C115.054 156.544 115.389 155.799 116.041 155.269C116.697 154.735 117.613 154.467 118.79 154.467C119.84 154.467 120.665 154.707 121.265 155.185C121.87 155.658 122.172 156.303 122.172 157.118C122.172 157.639 122.034 158.082 121.757 158.447C121.481 158.808 121.077 159.071 120.548 159.235C121.19 159.352 121.689 159.633 122.045 160.078C122.402 160.519 122.58 161.084 122.58 161.773C122.58 162.771 122.224 163.582 121.511 164.206C120.803 164.829 119.877 165.141 118.734 165.141C117.534 165.141 116.582 164.82 115.879 164.178C115.181 163.531 114.831 162.657 114.831 161.555V161.457Z" fill="white"/>
<rect x="284.79" y="142.278" width="75.6257" height="34.3753" rx="4.49559" fill="#3AD6D4"/>
<path d="M296.198 165.829V155.535H302.505V157.792H298.934V159.578H302.302V161.786H298.934V163.523H302.505V165.829H296.198ZM305.852 165.829V157.968H303.546V155.535H310.964V157.968H308.658V165.829H305.852ZM312.342 165.829V155.535H315.148V159.536H318.888V155.535H321.701V165.829H318.888V161.638H315.148V165.829H312.342Z" fill="#0D314B"/>
<path d="M341.487 160.587L344.501 157.765C344.8 157.486 345.283 157.486 345.582 157.765C345.88 158.044 345.88 158.497 345.582 158.777L341.588 162.514C341.307 162.778 340.851 162.778 340.57 162.514L336.576 158.777C336.278 158.497 336.278 158.044 336.576 157.765C336.875 157.486 337.359 157.486 337.657 157.765L340.672 160.587C340.897 160.797 341.262 160.797 341.487 160.587Z" fill="#0D314B"/>
<g filter="url(#filter1_d_205_3709)">
<rect x="246.977" y="197.181" width="120.314" height="36.0941" rx="3.72818" fill="url(#paint0_linear_205_3709)" shape-rendering="crispEdges"/>
<path d="M282.377 212.82C281.775 212.307 281.137 211.923 280.464 211.666C279.796 211.41 279.093 211.282 278.354 211.282C276.924 211.282 275.759 211.741 274.859 212.659C273.965 213.576 273.518 214.765 273.518 216.225C273.518 217.638 273.953 218.803 274.823 219.721C275.699 220.638 276.802 221.097 278.131 221.097C278.905 221.097 279.641 220.96 280.339 220.686C281.042 220.412 281.715 219.998 282.359 219.443V221.848C281.787 222.259 281.164 222.566 280.49 222.769C279.817 222.971 279.087 223.073 278.3 223.073C277.299 223.073 276.373 222.909 275.52 222.581C274.674 222.253 273.929 221.771 273.286 221.133C272.648 220.507 272.156 219.771 271.811 218.925C271.471 218.073 271.301 217.167 271.301 216.207C271.301 215.248 271.471 214.348 271.811 213.508C272.156 212.662 272.654 211.92 273.303 211.282C273.953 210.638 274.698 210.153 275.538 209.825C276.378 209.491 277.287 209.324 278.265 209.324C279.033 209.324 279.766 209.438 280.464 209.664C281.161 209.884 281.837 210.221 282.493 210.674L282.377 212.82ZM293.343 218.514C293.343 217.727 293.09 217.063 292.583 216.52C292.077 215.972 291.457 215.698 290.724 215.698C289.997 215.698 289.377 215.972 288.865 216.52C288.358 217.063 288.105 217.727 288.105 218.514C288.105 219.3 288.358 219.968 288.865 220.516C289.377 221.058 289.997 221.33 290.724 221.33C291.451 221.33 292.068 221.058 292.574 220.516C293.087 219.968 293.343 219.3 293.343 218.514ZM286.058 218.496C286.058 217.876 286.174 217.292 286.406 216.744C286.645 216.19 286.984 215.698 287.425 215.269C287.861 214.846 288.361 214.521 288.927 214.294C289.493 214.068 290.086 213.955 290.706 213.955C291.344 213.955 291.943 214.068 292.503 214.294C293.069 214.521 293.576 214.855 294.023 215.296C294.47 215.731 294.809 216.222 295.042 216.771C295.274 217.319 295.39 217.894 295.39 218.496C295.39 219.122 295.274 219.709 295.042 220.257C294.815 220.805 294.481 221.291 294.04 221.714C293.576 222.161 293.06 222.498 292.494 222.724C291.928 222.957 291.332 223.073 290.706 223.073C290.092 223.073 289.502 222.957 288.936 222.724C288.37 222.498 287.866 222.167 287.425 221.732C286.979 221.291 286.639 220.796 286.406 220.248C286.174 219.7 286.058 219.116 286.058 218.496ZM299.277 222.724V214.25H301.101V215.635C301.488 215.051 301.944 214.625 302.468 214.357C302.993 214.089 303.63 213.955 304.381 213.955C305.013 213.955 305.549 214.056 305.99 214.259C306.437 214.455 306.786 214.75 307.036 215.144C307.185 215.376 307.293 215.647 307.358 215.957C307.424 216.267 307.456 216.809 307.456 217.584V222.724H305.499V218.371C305.499 217.256 305.362 216.517 305.088 216.154C304.819 215.784 304.34 215.6 303.648 215.6C303.195 215.6 302.79 215.683 302.433 215.85C302.081 216.017 301.804 216.252 301.601 216.556C301.458 216.759 301.357 217.021 301.297 217.343C301.244 217.659 301.217 218.165 301.217 218.862V222.724H299.277ZM314.847 223.234L310.405 214.25H312.523L314.374 218.514C314.433 218.645 314.505 218.842 314.588 219.104C314.671 219.366 314.758 219.679 314.847 220.042C314.907 219.786 314.975 219.533 315.053 219.283C315.136 219.026 315.235 218.77 315.348 218.514L317.189 214.25H319.299L314.847 223.234ZM330.516 218.773H323.74C323.788 219.566 324.023 220.185 324.446 220.632C324.869 221.073 325.432 221.294 326.136 221.294C326.761 221.294 327.283 221.163 327.7 220.901C328.117 220.638 328.481 220.215 328.791 219.631L330.426 220.543C329.95 221.395 329.36 222.03 328.657 222.447C327.953 222.864 327.128 223.073 326.18 223.073C324.822 223.073 323.74 222.659 322.935 221.83C322.131 221.002 321.729 219.896 321.729 218.514C321.729 217.185 322.143 216.094 322.971 215.242C323.806 214.384 324.875 213.955 326.18 213.955C327.545 213.955 328.609 214.345 329.372 215.126C330.134 215.907 330.516 217 330.516 218.407V218.773ZM328.505 217.468C328.427 216.86 328.195 216.398 327.807 216.082C327.42 215.761 326.89 215.6 326.216 215.6C325.578 215.6 325.066 215.755 324.679 216.064C324.291 216.374 324.02 216.842 323.865 217.468H328.505ZM336.316 215.6C336.524 215.039 336.798 214.625 337.138 214.357C337.484 214.089 337.91 213.955 338.416 213.955C338.69 213.955 338.959 213.988 339.221 214.053C339.489 214.119 339.751 214.214 340.007 214.339L339.31 215.984C339.143 215.865 338.962 215.778 338.765 215.725C338.574 215.665 338.36 215.635 338.121 215.635C337.478 215.635 337.016 215.895 336.736 216.413C336.456 216.926 336.316 217.79 336.316 219.005V222.724H334.376V214.232H336.316V215.6ZM343.403 222.724V215.948H341.919V214.25H343.403V211.041H345.342V214.25H346.826V215.948H345.342V222.724H343.403Z" fill="#0D314B"/>
</g>
<rect x="0.37938" y="0.37938" width="401.241" height="262.117" rx="11.4268" stroke="url(#paint1_linear_205_3709)" stroke-width="0.758759"/>
<rect x="0.37938" y="0.37938" width="401.241" height="262.117" rx="11.4268" stroke="#1E1E1E" stroke-width="0.758759"/>
<rect x="0.37938" y="0.37938" width="401.241" height="262.117" rx="11.4268" stroke="url(#paint2_linear_205_3709)" stroke-width="0.758759"/>
<rect x="0.37938" y="0.37938" width="401.241" height="262.117" rx="11.4268" stroke="url(#paint3_linear_205_3709)" stroke-width="0.758759"/>
</g>
<defs>
<filter id="filter0_b_205_3709" x="-9.27625" y="-9.27625" width="420.552" height="281.428" filterUnits="userSpaceOnUse" color-interpolation-filters="sRGB">
<feFlood flood-opacity="0" result="BackgroundImageFix"/>
<feGaussianBlur in="BackgroundImageFix" stdDeviation="4.63812"/>
<feComposite in2="SourceAlpha" operator="in" result="effect1_backgroundBlur_205_3709"/>
<feBlend mode="normal" in="SourceGraphic" in2="effect1_backgroundBlur_205_3709" result="shape"/>
</filter>
<filter id="filter1_d_205_3709" x="230.744" y="184.767" width="154.689" height="70.4695" filterUnits="userSpaceOnUse" color-interpolation-filters="sRGB">
<feFlood flood-opacity="0" result="BackgroundImageFix"/>
<feColorMatrix in="SourceAlpha" type="matrix" values="0 0 0 0 0 0 0 0 0 0 0 0 0 0 0 0 0 0 127 0" result="hardAlpha"/>
<feOffset dx="0.954869" dy="4.77435"/>
<feGaussianBlur stdDeviation="8.59382"/>
<feComposite in2="hardAlpha" operator="out"/>
<feColorMatrix type="matrix" values="0 0 0 0 0.227451 0 0 0 0 0.835294 0 0 0 0 0.831373 0 0 0 0.37 0"/>
<feBlend mode="normal" in2="BackgroundImageFix" result="effect1_dropShadow_205_3709"/>
<feBlend mode="normal" in="SourceGraphic" in2="effect1_dropShadow_205_3709" result="shape"/>
</filter>
<linearGradient id="paint0_linear_205_3709" x1="252.298" y1="214.845" x2="366.956" y2="210.533" gradientUnits="userSpaceOnUse">
<stop stop-color="#3AD6D4"/>
<stop offset="1" stop-color="#36A7EF"/>
</linearGradient>
<linearGradient id="paint1_linear_205_3709" x1="390.205" y1="252.89" x2="252.478" y2="90.7363" gradientUnits="userSpaceOnUse">
<stop stop-color="#15BFFD"/>
<stop offset="1" stop-color="#181C1F" stop-opacity="0"/>
</linearGradient>
<linearGradient id="paint2_linear_205_3709" x1="390.205" y1="252.89" x2="252.478" y2="90.7363" gradientUnits="userSpaceOnUse">
<stop stop-color="#15BFFD"/>
<stop offset="1" stop-color="#00D1FF" stop-opacity="0"/>
</linearGradient>
<linearGradient id="paint3_linear_205_3709" x1="-2.20879" y1="-0.659888" x2="150.338" y2="184.33" gradientUnits="userSpaceOnUse">
<stop stop-color="#15BFFD"/>
<stop offset="1" stop-color="#00D1FF" stop-opacity="0"/>
</linearGradient>
</defs>
</svg>
