<svg width="16" height="15" viewBox="0 0 16 15" fill="none" xmlns="http://www.w3.org/2000/svg">
<path d="M7.80907 2.00861C7.97785 2.17739 8.20677 2.27221 8.44546 2.27221H14.5551C14.7554 2.27221 14.9474 2.35175 15.089 2.49335C15.2306 2.63494 15.3101 2.82697 15.3101 3.02721V13.5972C15.3101 13.7975 15.2306 13.9895 15.089 14.1311C14.9474 14.2727 14.7554 14.3522 14.5551 14.3522H0.965085C0.764846 14.3522 0.572808 14.2727 0.431218 14.1311C0.289628 13.9895 0.210083 13.7975 0.210083 13.5972V1.51721C0.210083 1.31697 0.289628 1.12493 0.431218 0.983342C0.572808 0.841752 0.764846 0.762207 0.965085 0.762207H6.18987C6.42857 0.762207 6.65749 0.857028 6.82627 1.02581L7.80907 2.00861ZM13.8001 7.70222C13.8001 7.20516 13.3972 6.80222 12.9001 6.80222H2.62009C2.12303 6.80222 1.72009 7.20516 1.72009 7.70222V11.9422C1.72009 12.4393 2.12303 12.8422 2.62009 12.8422H12.9001C13.3972 12.8422 13.8001 12.4393 13.8001 11.9422V7.70222ZM13.0451 5.29222C13.4621 5.29222 13.8001 4.95419 13.8001 4.53721C13.8001 4.12024 13.4621 3.78221 13.0451 3.78221H7.82032C7.58163 3.78221 7.35271 3.68739 7.18392 3.51861L6.20113 2.53581C6.03235 2.36703 5.80343 2.27221 5.56473 2.27221H2.62009C2.12303 2.27221 1.72009 2.67515 1.72009 3.17221V4.39222C1.72009 4.88927 2.12303 5.29222 2.62009 5.29222H13.0451Z" fill="white"/>
</svg>
