<svg width="19" height="19" viewBox="0 0 19 19" fill="none" xmlns="http://www.w3.org/2000/svg">
<path d="M0.77478 8.57326C0.77478 9.40721 1.45083 10.0833 2.28478 10.0833H7.31813C8.15208 10.0833 8.82813 9.40721 8.82813 8.57326V1.56616C8.82813 0.732205 8.15208 0.0561523 7.31813 0.0561523H2.28478C1.45083 0.0561523 0.77478 0.732204 0.77478 1.56616V8.57326ZM0.77478 16.5949C0.77478 17.4289 1.45083 18.1049 2.28478 18.1049H7.31813C8.15208 18.1049 8.82813 17.4289 8.82813 16.5949V13.5987C8.82813 12.7647 8.15208 12.0887 7.31813 12.0887H2.28478C1.45083 12.0887 0.77478 12.7647 0.77478 13.5987V16.5949ZM10.8415 16.5949C10.8415 17.4289 11.5175 18.1049 12.3515 18.1049H17.3848C18.2188 18.1049 18.8948 17.4289 18.8948 16.5949V9.58784C18.8948 8.75389 18.2188 8.07784 17.3848 8.07784H12.3515C11.5175 8.07784 10.8415 8.75389 10.8415 9.58784V16.5949ZM12.3515 0.0561523C11.5175 0.0561523 10.8415 0.732204 10.8415 1.56616V4.56241C10.8415 5.39637 11.5175 6.07242 12.3515 6.07242H17.3848C18.2188 6.07242 18.8948 5.39637 18.8948 4.56241V1.56616C18.8948 0.732203 18.2188 0.0561523 17.3848 0.0561523H12.3515Z" fill="white"/>
</svg>
