<svg width="13" height="17" viewBox="0 0 13 17" fill="none" xmlns="http://www.w3.org/2000/svg">
<path d="M12.9003 16.2066H11.3903V14.6966C11.3903 14.0959 11.1517 13.5198 10.7269 13.095C10.3022 12.6702 9.72605 12.4316 9.12533 12.4316H4.59532C3.9946 12.4316 3.41849 12.6702 2.99372 13.095C2.56895 13.5198 2.33032 14.0959 2.33032 14.6966V16.2066H0.820312V14.6966C0.820312 13.6954 1.21804 12.7352 1.92599 12.0273C2.63394 11.3193 3.59413 10.9216 4.59532 10.9216H9.12533C10.1265 10.9216 11.0867 11.3193 11.7947 12.0273C12.5026 12.7352 12.9003 13.6954 12.9003 14.6966V16.2066ZM6.86032 9.41158C6.26544 9.41158 5.67637 9.29441 5.12677 9.06675C4.57716 8.8391 4.07777 8.50542 3.65712 8.08477C3.23647 7.66412 2.9028 7.16474 2.67514 6.61513C2.44749 6.06553 2.33032 5.47646 2.33032 4.88157C2.33032 4.28668 2.44749 3.69762 2.67514 3.14801C2.9028 2.59841 3.23647 2.09902 3.65712 1.67837C4.07777 1.25772 4.57716 0.924043 5.12677 0.696389C5.67637 0.468735 6.26544 0.351562 6.86032 0.351563C8.06176 0.351563 9.21398 0.82883 10.0635 1.67837C10.9131 2.52791 11.3903 3.68014 11.3903 4.88157C11.3903 6.083 10.9131 7.23523 10.0635 8.08477C9.21398 8.93431 8.06176 9.41158 6.86032 9.41158ZM6.86032 7.90158C7.66128 7.90158 8.42943 7.5834 8.99579 7.01704C9.56215 6.45068 9.88033 5.68253 9.88033 4.88157C9.88033 4.08062 9.56215 3.31247 8.99579 2.7461C8.42943 2.17974 7.66128 1.86157 6.86032 1.86157C6.05937 1.86157 5.29122 2.17974 4.72486 2.7461C4.1585 3.31247 3.84032 4.08062 3.84032 4.88157C3.84032 5.68253 4.1585 6.45068 4.72486 7.01704C5.29122 7.5834 6.05937 7.90158 6.86032 7.90158Z" fill="white"/>
</svg>
